<svg width="40" height="73" viewBox="0 0 40 73" fill="none" xmlns="http://www.w3.org/2000/svg">
<path d="M13.278 58.7211L13.5084 58.5177L13.3788 58.614L13.924 58.0365C14.0058 57.9643 14.0863 57.8907 14.1656 57.8157C14.127 57.8498 14.0923 57.8713 14.0683 57.8823L14.2416 57.6958C14.7533 57.3127 15.916 56.2495 16.2752 55.9664C16.7283 55.57 17.2653 55.067 17.5876 54.7375C17.2856 55.0399 16.8704 55.427 16.9565 55.2726C17.536 54.6254 17.7311 54.2247 18.8835 53.2588L18.2588 53.8761L19.7952 52.6187C20.2302 52.0756 19.0284 53.2462 18.7852 53.3912C19.9418 52.3751 20.6707 51.2989 21.2927 50.9133C21.2945 50.774 21.2984 50.5405 22.0204 49.8375C21.5837 50.428 22.5 49.4622 22.1614 49.9662C22.4482 49.7602 22.9344 49.1494 23.0271 49.16L22.9316 49.1978C24.0429 47.8767 24.6148 47.6504 25.1936 47.1878C26.6841 45.7642 27.3108 45.0531 28.5148 43.8807C28.5152 43.7881 28.7123 43.339 29.1957 42.8689C29.4809 42.7103 30.5891 41.668 30.78 41.6384C29.9582 42.5209 30.0126 42.2661 29.4819 42.7557C29.1399 43.2627 29.5266 42.8769 28.9948 43.505C29.4319 43.006 31.1619 41.4409 31.5973 40.8517L31.4047 41.021C32.178 40.1578 32.1359 39.8046 33.6249 38.5655L34.3272 37.9661C34.2877 37.9894 34.2746 37.9836 34.2508 37.9932C34.7809 37.4585 34.9503 37.241 35.1435 37.0195C35.1944 36.9609 35.2464 36.9034 35.2997 36.8469C35.3717 36.771 35.4453 36.6966 35.5204 36.6236C35.6934 36.4547 35.9241 36.2409 36.2863 35.9174C36.1746 36.0172 36.2235 35.9513 36.1118 36.0513C36.2556 35.89 36.4048 35.7336 36.5593 35.5823C36.2745 35.2971 36.0189 35.0126 35.7686 34.7303L35.4008 34.3154L35.0926 33.9737C34.7151 33.7321 35.1002 34.1124 35.2437 34.3512C34.0344 33.2022 32.8726 31.8202 32.2196 31.0096L31.4175 30.2915C31.8421 30.7682 32.3243 31.3871 32.1457 31.2903C31.7398 30.8606 31.8526 30.9096 31.2465 30.3335C31.3049 30.4766 31.5138 30.7634 31.7386 31.0939C30.4398 29.9472 31.6166 30.6706 30.6263 29.9488C30.24 29.567 30.0786 29.2825 30.0883 29.1892L29.3221 28.5631C29.3105 28.4207 28.4522 27.5609 27.8972 26.9902C27.8566 26.8935 28.4225 27.3718 28.6111 27.6097C28.6208 27.5165 28.0441 26.8955 27.6566 26.5126C27.3766 26.5095 25.1456 23.9801 25.4396 24.5956C23.7479 22.827 21.3224 20.3915 20.2344 19.1962C19.8182 18.8589 19.0458 18.0964 19.4428 18.6191C18.0443 17.232 17.4654 16.3752 16.0402 15.0355C15.908 14.9387 16.6661 15.6594 16.5708 15.6562C15.7194 14.701 14.8621 14.0765 13.4919 12.643C13.7263 12.8804 13.7666 12.9772 13.7851 13.0242C13.8327 13.0258 13.2563 12.4047 12.9146 12.0212C12.6981 11.83 13.1703 12.3081 13.038 12.2117C10.2527 9.58007 8.37004 7.33755 5.66041 4.65995C6.43419 5.42453 6.63446 5.80522 6.60496 5.85084L5.84703 5.1016C5.60141 4.76673 5.03331 4.20316 4.59285 3.69776C4.5174 3.65692 4.26777 3.44596 4.48168 3.70155C3.68823 3.0061 3.14683 2.38536 2.5687 1.7172L2.12381 1.20523L2.06703 1.13989L2.03311 1.08749C2.00983 1.05343 1.98294 1.02175 1.97151 0.980717C1.93458 0.907208 1.91572 0.824536 1.9087 0.741465C1.90268 0.657796 1.91091 0.571138 1.93719 0.488864C1.95305 0.450416 1.96248 0.399219 1.98214 0.379298C1.99001 0.365484 1.99665 0.35102 2.00201 0.336069L2.00622 0.323918L2.02328 0.303798L2.0574 0.263357L2.12622 0.181481L2.13485 0.171123L2.13605 0.169927C2.0883 0.222518 2.12341 0.18407 2.11298 0.195625L2.11478 0.19443L2.1184 0.19184L2.13244 0.181481L2.16034 0.160166L2.21431 0.114347C2.23605 0.104388 2.2574 0.0936221 2.27833 0.0820741C2.32368 0.0509971 2.35639 0.0505998 2.3895 0.0330692C2.39733 0.022511 2.44087 0.0183273 2.48121 0.0141438L2.6008 0L2.46556 0.00159282C2.44709 0.00258887 2.41338 0.000397535 2.40134 0.00438176C2.3718 0.0125341 2.34146 0.017478 2.31084 0.0191244L2.24442 0.0454196C2.19345 0.0579699 2.1483 0.0896447 2.09773 0.122515L2.07806 0.134467L2.06783 0.140443L2.06301 0.143432L2.06161 0.144229L2.06101 0.144627C2.06924 0.135463 2.04134 0.165744 2.07946 0.12391L2.07666 0.126898L2.03071 0.173912C1.99955 0.206062 1.96838 0.2382 1.93719 0.270329C1.88181 0.34822 1.80314 0.491454 1.78528 0.643651C1.77317 0.797479 1.80174 0.951781 1.86816 1.09128C1.91051 1.15662 1.94221 1.21419 1.99799 1.27993L2.15191 1.46042L2.46936 1.83294L1.85652 1.35225L2.74709 2.40348C2.11699 1.868 1.71786 1.28252 1.59505 1.20742C1.6083 1.25623 1.64663 1.31001 1.69057 1.36798L1.7582 1.45683L1.82402 1.52994C1.9091 1.62537 1.97773 1.70903 1.96348 1.73234C1.81618 1.59628 1.71083 1.50962 1.6115 1.37695C1.56054 1.32017 1.53144 1.25842 1.50495 1.20105C1.47806 1.14387 1.45157 1.09228 1.44274 1.0361L1.40883 0.875533L1.40482 0.706602C1.3994 0.647835 1.41485 0.58608 1.42408 0.517949C1.4299 0.449221 1.45338 0.377704 1.48167 0.298019C1.38374 0.498426 1.34703 0.769354 1.42689 1.04407C1.46622 1.17973 1.52923 1.32017 1.62756 1.4405C1.65004 1.47018 1.67592 1.50664 1.69759 1.53114L1.762 1.60345L1.89405 1.75007C2.27423 2.16813 2.66015 2.581 3.05171 2.98857L5.25064 5.26476C5.42342 5.45819 5.12743 5.07471 5.10937 5.0281C5.58134 5.506 5.91145 5.74625 6.48697 6.3662C6.79981 6.7955 6.15867 6.12754 5.85666 5.84028C5.84542 5.93232 5.99733 6.07694 6.31901 6.41162C6.45967 6.41381 8.15152 8.18201 8.66042 8.51947C10.3984 10.2881 8.19967 8.41807 9.9477 10.0936L10.5401 10.5243C11.476 11.5752 12.7115 12.9097 13.8569 14.0133L13.6218 13.7747C13.4971 13.5838 13.7799 13.8229 13.9131 13.9207C14.7999 14.7337 15.4699 15.5899 16.0661 16.0242C16.9545 17.0734 18.5137 18.7452 19.5824 19.8925C19.987 20.0865 18.2203 18.3641 17.8228 17.84L18.8347 18.8454C18.2103 18.2229 18.0028 17.938 17.6871 17.5065C18.5939 18.3681 18.7942 18.7484 19.6087 19.6098C19.5716 19.5165 19.7014 19.6108 20.0901 19.995L20.1309 20.1733C20.1435 20.1747 20.1919 20.2122 20.3161 20.3267L21.7701 21.8545C21.423 21.5686 21.3473 21.6134 20.9598 21.2304C21.1384 21.3272 20.8186 20.9937 20.4305 20.6108C20.724 20.9923 20.0149 20.2743 19.9856 20.3196C20.7632 21.0877 21.7067 22.0429 22.1964 22.5667L22.4255 22.6673C23.181 23.385 23.9259 24.1952 24.4457 24.6745L24.3216 24.4839C25.2281 25.3449 26.06 26.2527 26.9099 26.9724C27.6279 27.8302 28.5628 28.8793 29.1331 29.5968C29.3964 30.0222 31.5578 31.7983 32.3334 32.799C32.4024 32.8498 31.7829 32.1292 31.5098 31.7961C32.1158 32.3724 32.4849 32.9424 32.7576 33.041C31.397 31.7483 32.8984 33.0432 32.3233 32.4232C32.945 33.0436 33.5865 33.7115 33.8613 34.046C32.8533 33.0438 34.0997 34.5207 33.1162 33.4693C33.4581 33.8777 33.8751 34.3411 34.323 34.8122L34.7574 35.266C34.8649 35.3742 34.9753 35.4794 35.0888 35.5813L35.0308 35.6461C35.1058 35.6461 35.0835 35.7025 34.9214 35.8943C34.9176 35.8983 34.7007 36.0057 34.7045 36.0019C34.6043 36.111 34.7235 36.0246 34.8291 35.9543C34.9326 35.8857 35.0223 35.8333 34.789 36.084C34.7041 36.1453 34.6639 36.1696 34.4932 36.3286C34.3412 36.4691 34.1914 36.6118 34.0439 36.7569L33.1005 37.7008C32.4801 38.3233 31.9138 38.8725 31.6278 38.9857C30.9991 39.7447 33.0221 37.738 32.0552 38.8628C32.7281 38.3183 33.4995 37.4113 33.7866 37.2966C33.1635 37.8665 33.6407 37.5854 33.2554 37.9697L32.5348 38.5799L32.6793 38.4301C31.4779 39.4618 29.7417 41.2626 28.2973 42.6693C26.999 43.7865 26.0398 44.4909 24.5958 45.9433C25.0756 45.5674 23.4373 47.1902 24.4453 46.374C23.8174 47.086 23.1004 47.6928 23.0496 47.6687C23.6287 47.0683 23.2459 47.4502 23.7259 46.937C23.344 47.2258 22.5702 47.998 22.2814 48.3438C22.4257 48.1938 22.3782 48.2582 22.4251 48.24C21.7491 48.9717 22.0414 48.5315 21.5117 49.0195C21.4133 49.2435 20.4014 50.1557 19.9679 50.6511L19.2012 51.2324C19.6322 50.9226 18.5749 51.8974 18.5231 52.0577C17.9963 52.4974 17.5157 52.8277 16.7935 53.5767C17.1297 53.3048 16.1646 54.2901 16.2124 54.3628C15.0058 55.6756 13.9535 56.2778 12.8424 57.553C12.8937 57.5301 13.1753 57.3294 12.8404 57.692C12.5478 57.949 12.0722 58.4353 11.7706 58.7217L11.7816 58.7142L11.7646 58.7277C11.6169 58.8678 11.5183 58.9506 11.5003 58.9395C10.936 59.3819 10.6153 59.5803 9.57145 60.517C9.57526 60.3758 10.441 59.5696 10.8264 59.2311L11.2087 58.9873C11.4044 58.5857 12.1232 58.1155 12.3164 57.854C11.5978 58.3241 9.91118 60.0583 8.8061 61.0059C9.33747 60.2869 10.6884 58.9158 11.892 57.7442L11.4086 58.3064L12.0335 57.6886L11.5035 58.361C12.0812 57.7615 12.6108 57.2735 13.1406 56.7392C12.5141 57.3583 12.366 57.695 12.7045 57.3289C13.3332 56.5699 13.4749 56.6523 14.003 56.1196C13.7131 56.42 13.3288 56.8041 13.6167 56.5968C14.5834 55.472 14.9213 55.2441 15.7872 54.2082C15.7842 54.4403 16.9916 53.0352 17.2292 52.9872L16.7959 53.4367L17.8053 52.5729C18.5785 51.6187 16.9416 53.24 18.1946 51.8639C19.4006 50.6435 19.4903 50.7953 20.4566 49.8538C20.0729 50.0989 19.2549 50.7945 18.4846 51.5631L18.9192 51.066C18.6321 51.2724 17.5719 52.3414 17.043 52.8747C18.0024 52.0778 16.6547 53.308 16.3153 53.767C16.1755 53.7743 16.7516 53.2231 16.0304 53.8335C16.6575 53.2135 16.7544 53.1281 17.5256 52.3131C15.8349 54.0514 15.7487 53.6211 14.3022 55.1674C15.0246 54.5098 14.1563 55.5019 14.1052 55.6164C13.7715 55.932 13.095 56.5724 12.8064 56.8256L12.9569 56.4864C12.0407 57.3141 11.9392 57.8169 10.8307 58.7217C10.6422 58.795 11.6996 57.8207 11.5067 57.9898C10.0649 59.302 9.72136 59.9491 8.5663 61.2386C8.46838 61.2788 8.42202 61.2045 7.94242 61.5804C8.13446 61.5035 7.8463 61.848 8.37125 61.4103C7.98516 61.8416 7.4572 62.282 7.07292 62.6191C7.89325 61.738 6.64108 62.8841 6.44944 63.0062C6.0168 63.455 6.64148 62.9291 6.93024 62.6755C6.59051 63.0434 6.25299 63.546 5.96543 63.661C6.01178 63.7349 7.11687 62.8335 7.79111 62.1954L7.35707 62.6456C7.69359 62.3729 7.74215 62.3073 8.17319 61.8607C7.78871 62.3352 7.88302 62.3444 8.0265 62.2874C8.07426 62.2227 7.98075 62.3044 8.0261 62.2422C8.36543 61.8747 8.65419 61.6211 8.60403 61.7344C9.00416 61.4983 8.16275 62.2733 7.96289 62.552L7.40543 63.0733L5.30182 64.6443C4.48409 65.3957 4.19252 65.8093 3.64027 66.4354L3.4083 66.5274C2.73044 67.2147 2.10596 67.8783 2.63332 67.5301C2.63472 67.4825 2.73064 67.3982 2.87612 67.2472C2.90542 67.2368 2.94636 67.2097 2.99512 67.1721C3.01358 67.1619 3.02542 67.1581 3.04127 67.1506L1.76743 68.3361C3.11432 67.1998 1.95605 68.3998 2.28816 68.3156C1.99231 68.5911 1.69646 68.8666 1.4006 69.1421L1.29084 69.2443L1.14776 69.4046L1.10843 69.4495C1.10442 69.4529 1.09217 69.4702 1.08054 69.4873L1.04843 69.5355C1.00749 69.5983 0.973976 69.6557 0.947891 69.7031C0.895115 69.7989 0.871239 69.8545 0.874046 69.8515C0.933113 69.7076 1.00589 69.5697 1.09137 69.4395C1.09794 69.4301 1.10456 69.4207 1.11124 69.4114L1.14595 69.362C1.16269 69.3371 1.17936 69.3121 1.19592 69.2871L1.20034 69.2799L1.20094 69.2791L1.25873 69.2156L1.25993 69.2138L1.26234 69.2106L1.27097 69.1993L1.28341 69.1809C1.29605 69.1608 1.29284 69.1566 1.278 69.1646C1.27057 69.1686 1.26033 69.1756 1.24749 69.1849L1.23746 69.1925L1.23666 69.1931L1.17665 69.2588L1.17545 69.26L1.17284 69.2624L1.16782 69.2672L1.14576 69.2889C1.11365 69.3216 1.07713 69.3582 1.03217 69.4084C0.948296 69.5234 0.862206 69.6642 0.794983 69.8063C0.750031 69.9266 0.707291 70.0513 0.679398 70.168C0.659531 70.2866 0.646889 70.3977 0.638863 70.4886C0.655491 70.5458 0.667896 70.6042 0.675987 70.6633C0.692242 70.7519 0.702274 70.8692 0.748428 71.0021C0.768696 71.0689 0.791973 71.1406 0.818462 71.2155C0.851772 71.2876 0.890499 71.3629 0.93264 71.4406C0.974388 71.5218 1.02543 71.5979 1.08475 71.6675C1.11445 71.7041 1.14495 71.741 1.17565 71.7786L1.22341 71.834L1.22943 71.8408L1.30006 71.9042L1.3075 71.9105L1.32235 71.9233L1.44435 72.0279C1.52822 72.0892 1.65405 72.1655 1.76562 72.2223L1.85271 72.2649L1.92635 72.2908L2.07566 72.3384C2.17499 72.3721 2.27652 72.3876 2.37806 72.3976C2.58014 72.4279 2.7788 72.4044 2.9594 72.3765C3.138 72.3315 3.30295 72.2844 3.43238 72.2076L3.34509 72.2287C3.46489 72.1625 3.60135 72.0972 3.71894 71.991C3.77914 71.9416 3.84415 71.8856 3.90054 71.833L3.99566 71.7344L4.41626 71.3115C4.70238 71.0294 4.99312 70.7519 5.28837 70.4792C5.28837 70.5254 6.05553 69.9893 6.438 69.7455C5.58957 70.6392 6.13639 70.1519 6.10931 70.2642C6.196 70.1706 6.35774 70.0083 6.38563 69.9983C6.53051 69.8937 6.24215 70.1931 6.24035 70.2403C5.75954 70.6856 5.27774 71.1432 4.85653 71.5247C4.66779 71.697 4.47496 71.865 4.2782 72.0283L4.12569 72.151C4.036 72.2219 3.94709 72.2852 3.86221 72.3402C3.68863 72.4448 3.51626 72.5082 3.37639 72.551C3.57185 72.4458 3.75666 72.3526 3.90676 72.2265C3.98121 72.1691 4.0677 72.099 4.12569 72.0494L4.22823 71.9643C4.36629 71.8518 4.51037 71.7364 4.65546 71.5635C4.51545 71.669 4.37975 71.7801 4.2487 71.8964C4.21378 71.9277 4.17826 71.9591 4.14235 71.9916L4.07773 72.0498L3.95472 72.1518C3.79177 72.2924 3.59351 72.3978 3.38301 72.4918C2.92455 72.671 2.41882 72.6925 1.94662 72.5528C1.88422 72.5343 1.82181 72.5143 1.7596 72.4924C1.60328 72.4232 1.45358 72.3401 1.31231 72.2442C1.29023 72.2295 1.28381 72.2241 1.27919 72.2203L1.26054 72.2054L1.22301 72.1755L1.14736 72.1147L1.13793 72.1069L1.13311 72.103L1.04421 72.0231L1.0398 72.0183L1.00468 71.9795L0.935249 71.9C0.843544 71.7916 0.754047 71.6802 0.688229 71.5482L0.620804 71.4476C0.57016 71.3738 0.527317 71.295 0.492973 71.2125C0.453239 71.123 0.417122 71.0304 0.391838 70.9603C0.368359 70.89 0.35973 70.8412 0.35973 70.8412L0.349899 70.7374C0.346489 70.671 0.334049 70.5764 0.341473 70.4637C0.350601 70.335 0.366875 70.207 0.390232 70.0802C0.428963 69.9403 0.466892 69.8051 0.533512 69.6515C0.596035 69.5224 0.668282 69.3982 0.749634 69.2799L0.789364 69.2238C0.805019 69.2019 0.802807 69.2072 0.810432 69.1977L0.927425 69.067L1.01451 68.9716L1.02134 68.9654L1.03458 68.953L1.05906 68.9307C1.07238 68.9186 1.08562 68.9064 1.0988 68.8941C1.12087 68.8737 1.13372 68.8624 1.13372 68.8624C1.08916 68.8988 1.05264 68.9265 1.02073 68.9492L1.0089 68.9574L1.00327 68.9614L1.00288 68.9616L0.921005 69.0514L0.920197 69.052L0.918999 69.0532L0.916187 69.0554L0.896118 69.0716L0.859196 69.0999L0.791367 69.1475L0.756657 69.1722C0.741207 69.1859 0.705082 69.2321 0.678394 69.2666C0.619999 69.3429 0.554985 69.4369 0.485954 69.5612L0.434784 69.6594L0.399063 69.7483C0.374981 69.811 0.350296 69.8814 0.326015 69.9601C0.243942 70.2694 0.156052 70.7527 0.400463 71.3844C0.359528 71.3119 0.262608 71.1155 0.22448 70.8258C0.207222 70.6802 0.188759 70.5137 0.211834 70.332C0.220192 70.2377 0.232986 70.1438 0.250164 70.0507C0.274445 69.9555 0.303345 69.8575 0.336857 69.7588C0.376389 69.5935 0.590096 69.2339 0.699661 69.1022L0.794582 68.9937L0.908958 68.8668L0.935452 68.8419L0.98843 68.7917C1.12529 68.6627 1.25838 68.5298 1.38756 68.3932L1.72026 68.2166C1.57879 68.2713 2.63893 67.2024 1.821 67.8976C1.50668 68.1796 1.1923 68.4614 0.877857 68.7433L0.850567 68.7676L0.837322 68.7795L0.830704 68.7853L0.829098 68.7869L0.72916 68.8965L0.726154 68.8997L0.63726 68.9971L0.597927 69.0403C0.59692 69.0391 0.568829 69.0783 0.555786 69.0965L0.508827 69.164C0.449028 69.2524 0.40107 69.3335 0.363747 69.4009C0.288895 69.5377 0.25679 69.6162 0.260201 69.6106C0.255989 69.6168 0.287487 69.5266 0.351101 69.3915C0.38731 69.3149 0.426746 69.2398 0.469299 69.1664L0.578465 68.9879L0.664345 68.8433L0.769299 68.7275L0.770699 68.7257L0.773113 68.7224L0.777927 68.7158L0.786758 68.7038C0.792175 68.6965 0.797188 68.6899 0.801003 68.6843C0.808826 68.6735 0.813648 68.6676 0.813648 68.6676L0.767895 68.7114L0.762474 68.7168L0.652103 68.8377L0.640671 68.8508L0.615383 68.8807C0.597122 68.902 0.576855 68.9263 0.554379 68.9524L0.537323 68.9728L0.528694 68.9831C0.526485 68.9853 0.523273 68.9891 0.512035 69.0048C0.392616 69.17 0.289597 69.3463 0.204414 69.5311C0.157455 69.6447 0.127357 69.7449 0.0936432 69.8589L0.049099 70.0276C0.0394669 70.0848 0.0316391 70.1425 0.0246124 70.2007C-0.049633 70.6671 0.0563202 71.1382 0.179733 71.4679C0.250771 71.6296 0.322609 71.7607 0.373978 71.8502C0.423744 71.9414 0.462475 71.9856 0.462475 71.9856L0.441605 71.9538C0.427959 71.9338 0.410702 71.9038 0.392239 71.8661C0.354313 71.7916 0.306156 71.6904 0.263615 71.5882C0.223274 71.4957 0.191761 71.3997 0.169495 71.3013L0.138794 71.1681C0.162876 71.2577 0.189564 71.3444 0.218056 71.4274C0.24836 71.5095 0.288494 71.586 0.325619 71.6611C0.363747 71.7358 0.403278 71.8071 0.443413 71.8751C0.485153 71.9416 0.53331 72.001 0.578861 72.0599C0.625015 72.1183 0.67157 72.1737 0.717922 72.2263L0.75264 72.2651L0.769897 72.284L0.774315 72.2886L0.776524 72.291L0.891907 72.3948L0.895924 72.3982L0.92662 72.4237C0.967358 72.4568 1.00568 72.4878 1.0414 72.5173C1.24468 72.6671 1.55352 72.8311 1.71064 72.8735C1.88261 72.9255 2.03291 72.9693 2.16616 72.9815C2.43425 73.0106 2.62228 73.0032 2.76897 72.9745C2.91565 72.9482 3.02181 72.9281 3.12334 72.8859C3.22549 72.8472 3.32663 72.8062 3.46027 72.7492C3.5877 72.6811 3.75846 72.6006 3.96495 72.4486C4.01971 72.4061 4.07358 72.3625 4.1265 72.3177L4.21379 72.242L4.25874 72.2016L4.2798 72.1809L4.45699 72.0093C4.63165 71.8451 4.80872 71.6835 4.98817 71.5245C5.61024 71.0926 6.18837 70.5386 7.20055 69.4885C6.43078 70.2111 7.05767 69.4993 6.72155 69.7252C7.44636 68.9281 7.78128 68.7488 8.21413 68.3917C8.35941 68.1494 8.45734 67.9721 7.78229 68.6564C7.59346 68.6385 8.69774 67.7831 8.65339 67.6155C10.9169 65.3748 10.8088 66.1591 13.3179 63.4038L13.1759 63.4596C14.9072 61.847 15.8239 60.835 17.4114 59.3261L18.5255 58.0032C18.2351 58.258 17.4178 58.9072 17.7084 58.514C17.224 59.2146 16.5537 59.8031 15.972 60.4983C15.8779 60.535 16.1183 60.2551 16.2142 60.1246C15.8281 60.5097 15.6836 60.7515 15.1535 61.24C15.1555 61.193 15.6852 60.6123 15.2518 61.0161L14.6247 61.7737C13.6621 62.6649 14.0036 62.0667 12.9425 63.1823C13.2062 63.0408 13.7089 62.7161 14.1465 62.3107C13.6605 62.8195 14.8487 61.6864 14.4295 62.1747C13.6204 62.7994 13.3444 63.2148 12.3319 64.1082C12.4567 64.0092 12.5038 63.9971 12.7448 63.769L11.3953 65.1842C11.6859 64.7911 10.1913 66.2647 10.2423 66.0589C11.6885 64.5588 11.3012 65.0371 12.9419 63.3203C12.4472 63.7763 11.7525 64.308 11.3911 64.5214C11.3795 64.5389 11.3576 64.5656 11.3072 64.6184C10.9723 64.7971 11.2141 64.516 11.0739 64.3867C11.9394 63.7186 12.3742 63.1295 13.3368 62.2838C13.5814 62.188 12.905 62.9002 12.4348 63.3287L13.2832 62.584L13.0918 62.7064L15.0955 60.668C14.7072 61.0457 14.5336 61.1326 14.3008 61.2997C14.5597 61.037 14.7993 60.7601 15.0535 60.4652C15.0662 60.5929 15.1527 60.6061 15.4067 60.3515C16.695 59.0391 17.3572 58.2556 17.7582 57.6974L17.9151 57.5516C17.7688 57.8406 18.9722 56.7607 19.4506 56.4326C19.3557 56.3784 20.0783 55.7204 20.4162 55.3088C20.7026 55.1955 20.5541 55.5784 20.1662 56.1027C19.205 56.9009 19.5925 56.5149 19.0639 56.8183L17.5739 58.15L17.9588 57.904C17.2826 58.6355 16.5134 59.2196 16.6543 59.2564C17.0871 58.9449 17.6674 58.297 18.0975 57.9884L17.6628 58.4849C18.5751 57.7532 18.0012 57.9815 19.0607 57.051C18.7691 57.4908 19.1566 56.9665 19.635 56.5924C19.3446 56.9858 17.8555 58.3161 18.2845 58.1462C18.8598 57.6866 19.8802 56.2621 20.6954 55.7075L20.6472 55.7264C21.6439 54.7036 22.0735 54.4232 22.4994 54.0927C22.8887 53.6231 23.5428 53.0904 24.015 52.6308L23.9661 52.6049L24.6411 51.9659C24.259 52.2099 23.8701 52.7348 23.2938 53.2875L23.2946 53.1484C22.7243 53.8787 22.163 54.1863 21.5968 54.6295C22.3942 53.9578 23.661 52.5466 23.9701 52.5097L24.3558 51.9874L24.5994 51.796C24.8863 51.4063 24.4567 51.6685 23.7822 52.3067C23.6855 52.4378 23.6368 52.5032 23.6861 52.4832C23.3492 52.756 23.0143 52.9811 22.2907 53.7315L22.7221 53.3761C21.8061 54.2955 20.9416 55.1003 20.5579 55.3455C21.8586 53.9964 23.1604 52.6922 24.4121 51.4557C24.9377 51.2461 25.4631 50.9001 25.797 50.8589C26.6619 50.0541 27.8195 48.9446 28.4936 48.1691L28.3978 48.2068C28.7031 47.8777 29.0251 47.5644 29.3627 47.2681C29.6994 46.8575 29.0285 47.4464 29.2691 47.1661L30.5183 46.0234C30.378 46.0312 29.3681 47.0334 28.8837 47.5049C28.9798 47.4205 29.1734 47.2501 29.1237 47.3173C28.5931 47.898 27.4412 48.8177 27.2932 49.155C27.0046 49.4082 27.9158 48.6771 27.0008 49.5955C26.4206 50.2429 26.1343 50.3567 26.0412 50.3921C25.9936 50.3648 26.9568 49.3813 26.5723 49.673C27.0566 49.2016 27.296 49.06 27.8731 48.4153C27.3933 48.8827 26.6717 49.448 26.4768 49.757C25.4671 50.6206 25.4259 50.312 25.8594 49.8624C25.809 50.022 27.6415 48.2281 26.4812 49.5228C27.1057 49.0437 28.1175 48.0404 28.8859 47.3653L28.8387 47.384L29.7554 46.5091C29.6091 46.6151 29.3205 46.8685 29.2744 46.8402L30.62 45.7039C29.8517 46.3326 31.0077 45.2262 31.2969 44.8797C31.4875 44.8042 32.0159 44.3632 31.5821 44.859C31.099 45.421 31.2455 45.1311 30.7641 45.6005L31.5301 45.0198L31.5792 44.9534L32.0601 44.6235C32.9749 43.7048 31.4859 44.8516 32.7373 43.7532L32.6847 44.0056C34.0348 42.6358 35.6741 40.783 36.6853 39.8718C36.3618 40.0789 36.1523 40.1036 36.4633 39.6861C36.0648 40.1162 35.2256 40.9423 34.6196 41.525C34.5227 41.6565 35.4841 40.9037 36.1104 40.2387C35.9617 40.7144 34.3806 41.7577 34.4719 41.9995C32.8794 43.6968 33.079 43.0621 31.7759 44.551C31.6818 44.4961 31.3411 44.9102 31.2014 44.918C31.4942 44.3849 33.0789 43.0623 33.9455 42.1171C33.851 42.1999 33.6608 42.3667 33.6116 42.3874C34.2397 41.7202 34.5251 41.4702 35.0069 41.0469L34.9585 41.1124C35.825 40.3973 35.3936 40.5696 35.8278 40.0734C36.0199 39.9046 36.6476 39.2387 36.598 39.3968L37.3726 38.4868L37.4153 38.6102C37.8971 38.1414 37.9465 37.9832 38.4297 37.6043L38.5244 37.6585L37.3657 38.8604C37.9906 38.2886 37.6047 38.7651 38.2802 38.1257C37.8708 38.451 37.9908 38.3113 38.2136 38.0727C38.3249 37.9532 38.462 37.8093 38.5714 37.6864C38.6189 37.6337 38.6645 37.5794 38.708 37.5235C38.7227 37.5041 38.7365 37.4841 38.7494 37.4635C38.7626 37.447 38.7733 37.4285 38.7809 37.4087C38.895 37.3067 39.0094 37.2047 39.1168 37.0979L39.3407 36.8631L39.4537 36.7441C39.4914 36.7043 39.5155 36.6585 39.5472 36.6156L39.4645 36.726L39.3624 36.827L39.4505 36.7063L39.5133 36.59C39.5528 36.5158 39.5972 36.4527 39.6195 36.3828L39.7001 36.1919C39.7228 36.1296 39.7375 36.0658 39.7573 36.0027C39.8027 35.877 39.8147 35.7391 39.833 35.575C39.8304 35.4927 39.8256 35.403 39.8167 35.304C39.8027 35.2058 39.7724 35.1004 39.7447 34.9819L39.83 35.2789C39.8458 35.3781 39.8595 35.4756 39.8715 35.572C39.8729 35.6682 39.8687 35.7634 39.8647 35.8582C39.8567 35.9525 39.8342 36.0435 39.8191 36.1363C39.7744 36.3176 39.7142 36.4987 39.6122 36.6659C39.5719 36.7543 39.5025 36.8334 39.4357 36.9165L39.2266 37.1714L38.8381 37.5446C38.7506 37.6243 38.6655 37.6984 38.568 37.7812L38.7937 37.5892C38.8226 37.5659 38.9139 37.4804 38.9886 37.4115L39.2384 37.1792C39.4136 36.9796 39.6231 36.7708 39.7509 36.527C39.8715 36.2784 39.963 36.0104 39.9871 35.7507C40.0481 35.2275 39.8773 34.799 39.8001 34.6156C39.6913 34.3442 39.4662 34.14 39.2847 33.9337C39.1068 33.7414 38.8822 33.4962 38.8015 33.4362C38.5776 33.2364 38.3526 33.0456 38.1094 32.8127C38.5529 33.2826 38.416 33.2591 38.4046 33.3396C38.399 33.3799 38.4247 33.446 38.57 33.6127L38.9855 34.0703L39.3536 34.465C39.4134 34.5433 39.4611 34.6327 39.5207 34.7237C39.5627 34.8235 39.6142 34.9271 39.6502 35.0431C39.6546 34.9694 39.5334 34.6741 39.4461 34.5825C39.6219 34.7341 39.8294 35.1811 39.7772 35.7045C39.7601 35.965 39.6594 36.227 39.5358 36.4605C39.4027 36.6886 39.1985 36.8744 39.0383 37.0457L38.6731 37.3665C38.7225 37.2685 38.6043 37.3533 38.5876 37.3434C38.5774 37.3404 38.5657 37.3404 38.6087 37.2862C38.6544 37.2294 38.7449 37.1284 38.9053 36.9569L39.1242 36.6842C39.0592 36.7782 39.0847 36.7748 39.175 36.6963C39.1973 36.6764 39.2249 36.6525 39.2536 36.623L39.3361 36.5154C39.365 36.4746 39.4013 36.4322 39.4306 36.3808C39.4563 36.3272 39.484 36.2702 39.5133 36.2099C39.6159 35.9646 39.6943 35.6321 39.6357 35.2857C39.5783 34.9397 39.4258 34.601 39.1505 34.3562L39.1601 34.4851C39.1668 34.5468 39.1613 34.6092 39.1589 34.6104C39.1658 34.6072 39.0801 34.5188 38.953 34.3863L38.4955 33.9094L37.9995 33.4307L38.0853 33.5271C37.6417 33.237 37.0563 32.4762 36.3379 31.8517C35.8936 31.3272 33.9943 29.508 34.9202 30.1827C34.2419 29.6556 33.8049 29.0357 33.1609 28.3649L34.0314 29.1337C33.1433 28.0848 33.369 28.4169 32.7247 27.5115C32.6139 27.4653 32.414 27.3195 32.5382 27.5099C31.2257 26.2192 29.3269 24.4002 28.6569 23.5438C27.731 22.6348 27.4479 22.629 26.2103 21.2923C25.9549 21.0058 26.5322 21.3937 25.6432 20.5781C25.577 20.5297 26.3797 21.4824 25.4364 20.5273C24.8484 19.764 23.7931 18.9952 22.989 18.041C22.4903 17.6109 21.6943 16.7959 21.7908 17.0344C22.5453 17.7507 23.575 18.8026 23.6998 18.9946C23.641 18.8506 24.2665 19.4743 23.7558 18.9012C24.9257 19.955 24.4356 19.6642 25.4735 20.621C25.5138 20.718 24.8797 20.1889 24.6909 19.9504C24.5883 20.0429 26.6173 21.9565 25.6101 21.1897C24.5321 20.1363 24.4186 19.6185 23.3887 18.8006C23.7008 19.2285 24.3323 19.7554 24.7015 20.3259L23.9006 19.6088L23.4184 18.9898L23.4371 19.0368C22.0023 17.7902 22.2935 17.7013 21.1388 16.4578C21.904 17.0828 21.1471 16.1293 21.7131 16.6089C20.9207 15.7975 20.3167 15.2235 20.2133 15.3154C21.6393 16.8893 20.1953 15.5028 21.4898 16.9818C21.2263 16.7897 21.678 17.4529 20.8376 16.6401C19.9727 15.6429 21.1988 16.8367 20.2988 15.8793C20.235 15.8333 20.169 15.7853 20.1871 15.8319C19.8092 15.3558 19.6685 15.3534 19.2058 14.7825L19.3091 14.9241C18.6102 14.348 18.6768 14.1625 18.0612 13.68C18.3541 13.8267 17.7509 13.2537 17.4549 12.8699C18.0407 13.3968 18.4469 13.5932 19.5425 14.6922C19.6182 14.8813 19.5058 14.8331 19.9304 15.3098L19.2216 14.592C19.3667 14.7548 19.4695 14.8863 19.5995 15.0383L20.3171 15.6913C19.4861 14.7851 19.9473 15.1211 19.6366 14.694C18.8137 13.9269 18.9941 14.0249 18.4735 13.5454C18.4398 13.679 16.7913 12.1611 15.8185 11.3029L16.2481 11.7226C16.8624 12.4378 15.7188 11.3365 15.671 11.3349L15.2267 10.8104C15.3126 10.907 15.4194 11.0522 15.2 10.8582C14.5573 10.1893 14.6791 10.1442 14.0377 9.47609C13.9418 9.4733 14.4272 10.0946 13.994 9.71315C13.8128 9.61354 13.2561 9.27488 12.4242 8.36728C12.38 8.28819 12.1635 8.05352 11.9088 7.78558C11.9428 7.82423 11.9869 7.87144 12 7.89116L11.3692 7.36544C11.7842 7.93459 12.4059 8.32066 12.8233 8.8926L12.7902 9.00914C13.1765 9.39322 13.6689 9.94663 13.8714 10.2249C13.2692 9.65259 13.1648 9.50975 12.5215 8.84C12.3816 8.79558 12.8103 9.29142 12.8721 9.36294L12.8169 9.22269C13.6651 9.94105 13.9198 10.4608 14.9121 11.4182C15.0628 11.5618 14.9781 11.4668 14.9594 11.42C15.6786 12.2788 16.5555 12.9509 17.2294 13.8105L17.0179 13.5221L19.4135 16.2529L19.3924 16.2901C19.2612 16.1947 19.6467 16.5754 19.8648 16.7682L19.8642 16.7668L21.1814 18.2601C20.9992 18.1224 20.8251 17.9744 20.66 17.8169C20.5338 17.6232 19.5644 16.717 19.7715 16.7676C19.2897 16.3827 18.6565 15.6202 18.3078 15.3325C18.9397 15.8602 17.9763 14.8572 17.9175 14.7132C17.6725 14.5679 17.0592 13.8536 17.0689 13.995C16.9368 13.8982 17.3988 14.2348 17.6064 14.5199C18.1541 15.1863 16.4363 13.4663 17.1367 14.2783C16.2178 13.2737 14.9251 12.0306 13.9904 10.9813L14.5749 11.5078C14.1224 11.0779 13.0896 10.0231 12.9792 9.9771C13.3005 10.3114 13.6858 10.6923 14.0933 11.1232C14.039 11.2178 13.0826 10.1187 12.9895 10.1181L11.891 8.78184L12.4304 9.30915C12.1386 8.92925 10.9645 7.87263 10.1245 7.05945C10.4979 7.63358 11.3735 8.30452 12.205 9.21193C12.8002 9.87989 11.7148 8.92128 12.2903 9.54143C12.1107 9.41055 11.722 9.0191 11.5547 8.80196L11.2996 8.58541C11.7417 9.20934 12.9626 10.3801 13.6814 11.2527C13.6212 11.1732 13.5706 11.102 13.5594 11.0692C14.2105 11.6439 14.8338 12.2656 15.4087 12.8854C15.0622 12.5997 14.9566 12.4553 14.786 12.2644C14.7405 12.2648 15.2967 12.8368 15.4854 13.0746C14.9002 12.5477 15.3264 13.0258 14.958 12.6908C15.2992 13.0734 15.6 13.3591 16.0523 13.789C16.3172 13.982 15.911 13.5524 16.0039 13.5531C16.4321 14.0332 16.751 14.1307 17.3648 14.846C16.4578 13.984 17.4985 15.1777 17.7732 15.512L17.6211 15.3676C17.8485 15.7006 18.0852 15.9399 18.3291 16.0839C17.9879 15.7012 17.6211 15.3676 17.7794 15.4156C18.017 15.6562 18.2538 15.8961 18.5093 16.1821L18.3018 15.8975L19.4829 17.0927C19.6232 17.3284 19.8702 17.7095 19.9637 17.9444C20.2938 18.1848 20.6554 18.6167 20.9101 18.9028L20.8041 18.7573C21.3716 19.2384 22.5074 20.4347 22.5632 20.5753C22.9772 20.9104 20.1798 17.6669 22.7966 20.3437C23.8059 21.3467 23.2886 21.1041 23.8178 21.7232C23.8178 21.7232 23.7991 21.6772 23.8653 21.725C24.3172 22.1539 24.3096 22.2495 24.6507 22.6322C24.365 22.3898 23.9799 22.0095 23.8762 21.867C23.952 22.0559 24.8016 22.7758 25.0952 23.1567C24.7439 22.6328 25.9832 23.9713 25.6872 23.5878C26.6229 24.404 27.493 25.4062 27.8895 25.9292C28.5969 26.4112 28.9208 26.982 29.94 27.8922C29.7879 27.7478 29.5344 27.4633 29.3145 27.2685C28.8331 26.6509 30.3544 28.2277 29.5693 27.3207C29.7399 27.5119 29.5449 27.3705 29.3697 27.1746C29.0518 26.8433 28.7759 26.5081 28.8897 26.5577L29.7407 27.2792L29.4823 26.989L30.7655 28.092C30.784 28.1384 30.6542 28.0444 30.5877 27.996C32.0141 29.3369 33.5538 30.9606 34.7819 32.1569C34.797 32.3687 35.5244 33.133 36.3558 33.9817L36.9893 34.6265L37.3029 34.9471L37.4213 35.0702L37.4886 35.1437C37.5762 35.2387 37.6595 35.3297 37.6766 35.4369C37.6983 35.5407 37.6712 35.6381 37.6234 35.7017C37.6932 35.6359 37.7552 35.5674 37.8114 35.5297C37.869 35.4919 37.9266 35.4861 37.9672 35.5527C37.9728 35.464 37.9756 35.3158 37.8851 35.1692C37.8411 35.0961 37.7781 35.024 37.7107 34.9443C37.6758 34.9042 37.6415 34.8666 37.5995 34.8239C37.5399 34.7634 37.4779 34.7032 37.4137 34.6435C37.3023 34.5962 36.6524 34.0225 37.0112 34.451C35.6599 33.0647 37.2841 34.5492 36.9524 34.0735L37.3292 34.4618L37.6649 34.8168C37.8074 34.9853 37.9625 35.119 38.0304 35.2921C38.0614 35.3738 38.0745 35.4612 38.0689 35.5484C38.0633 35.6355 38.0391 35.7205 37.9979 35.7977C37.9222 35.9483 37.7805 36.0387 37.6674 36.1292L37.5197 36.2433L37.2877 36.4435L36.8276 36.8499L36.8268 36.8973L36.0568 37.5737C36.6365 36.9718 36.4948 36.8896 35.77 37.6872L35.8686 37.6004C35.4799 38.0799 34.5174 38.9249 33.844 39.6082L33.3172 40.002C32.6428 40.6865 32.7343 40.8357 32.5852 41.1276C31.5249 42.1972 30.8085 42.7113 29.9903 43.4064C29.6998 43.7996 28.1115 45.4013 29.0237 44.6227C28.0132 45.5335 27.9249 45.0596 26.4281 46.8569L26.9081 46.4814C25.3166 48.0402 22.9607 50.178 22.2859 50.9543C23.0518 50.5569 20.4973 53.0994 20.3955 53.5564C20.4331 53.4381 19.8252 54.0142 19.7169 54.0783C19.6077 54.2283 19.4115 54.4638 19.1444 54.6552C19.7249 54.0074 18.5249 54.9007 19.7757 53.8024C19.0563 54.2726 18.1918 54.9401 16.8913 56.2433L16.9858 56.2981L17.997 55.2491C17.9476 55.4075 18.4757 54.8752 18.7194 54.6839C16.8381 56.6348 19.1462 54.6078 17.1702 56.5499C16.9318 56.6902 17.0749 56.5878 16.5447 57.0763C16.7875 56.8402 16.8824 56.8484 16.4961 57.2338L16.0645 57.5438C15.5026 58.3492 17.2822 56.4962 16.7841 57.1649C17.602 56.4695 18.9483 55.1953 18.7988 55.5334C17.5936 56.7986 17.5047 56.4631 16.2517 57.793L16.1546 57.9705C15.671 58.3956 15.5315 58.4034 15.242 58.6118C15.2426 58.6572 15.1442 58.7895 14.8579 59.0867C13.992 59.7554 13.462 60.2441 12.6467 60.8449C14.6159 59.0466 14.1897 59.1682 16.211 57.301C15.8741 57.5737 14.4778 58.9148 14.2902 58.8958L14.3835 58.9522C13.7103 59.5433 13.0376 60.1345 12.2654 60.9497L12.794 60.5089C11.6859 61.5053 11.1521 62.3641 10.1945 63.0677C10.4821 62.7691 10.7233 62.534 10.9163 62.3651C10.3394 62.8717 9.66497 63.5562 9.08684 64.155L7.74115 65.2457C7.78891 65.272 7.01674 66.0432 7.44958 65.731C6.62643 66.6613 6.10007 66.9623 5.57312 67.4486C4.75138 68.4223 6.38904 66.7089 6.58068 66.7239C5.37365 67.9906 4.02656 69.2662 3.2586 69.8947C3.49679 69.6284 3.60676 69.4933 3.57586 69.4881C3.56181 69.5489 3.05532 70.0395 2.77719 70.317L2.53699 70.4591L2.52696 70.4706L2.52435 70.4734L2.55024 70.4989H2.55064L2.55204 70.4999L2.55626 70.5039C2.56014 70.5081 2.56363 70.5126 2.56669 70.5174C2.56709 70.5184 2.56488 70.5135 2.56649 70.5163C2.57071 70.5246 2.56489 70.5113 2.5679 70.5188C2.5709 70.5294 2.57594 70.5393 2.58274 70.5479C2.58495 70.5499 2.59458 70.5631 2.59819 70.5621C2.60123 70.5621 2.60424 70.5627 2.60703 70.5639L2.61405 70.5666C2.61987 70.5637 2.61264 70.578 2.63131 70.5609C2.62228 70.5704 2.61987 70.572 2.62007 70.5706L2.61706 70.571L2.61245 70.573C2.60883 70.5732 2.61084 70.5826 2.60542 70.5794C2.59518 70.5722 2.59559 70.5858 2.58555 70.5746C2.57432 70.579 2.56168 70.5497 2.55746 70.5497C2.55726 70.5437 2.55726 70.5404 2.55626 70.54C2.55867 70.54 2.54823 70.5404 2.56047 70.5417C2.58171 70.5452 2.60128 70.5553 2.61626 70.5706L2.62709 70.5832C2.6283 70.5856 2.63934 70.5987 2.62569 70.5866L2.52616 70.5057L2.47599 70.4664L2.47559 70.4662L2.54863 70.5318L2.54884 70.5316L2.54903 70.5312L2.54923 70.5308L2.54943 70.5298V70.5288C2.54863 70.528 2.54542 70.5294 2.5392 70.5318C2.539 70.5298 2.52395 70.536 2.51231 70.5354C2.50428 70.5425 2.51291 70.5423 2.50469 70.5519C2.50168 70.5593 2.51051 70.5599 2.50629 70.5714L2.50589 70.5734L2.50568 70.5744L2.50549 70.5748C2.47499 70.5471 2.57412 70.6364 2.43666 70.5131L2.43726 70.5137L2.43987 70.5158L2.45993 70.5334L2.49966 70.5684L2.58034 70.6384L2.58937 70.6461L2.58676 70.6413L2.58054 70.6324C2.57615 70.6268 2.57095 70.6219 2.56509 70.6179C2.55437 70.6106 2.54205 70.606 2.52916 70.6045C2.54166 70.6106 2.55546 70.6136 2.56937 70.6132C2.58329 70.6128 2.5969 70.6091 2.60903 70.6023C2.61465 70.6003 2.62288 70.6007 2.62469 70.5914C2.62588 70.59 2.62733 70.589 2.62895 70.5882C2.63057 70.5874 2.63233 70.587 2.63412 70.587C2.63271 70.5912 2.64495 70.5788 2.65699 70.5666L2.69051 70.5332L2.94415 70.2822C3.10349 70.1268 3.24134 69.9967 3.3495 69.9079C3.12926 70.1133 2.91336 70.3232 2.70195 70.5376L2.64817 70.5925C2.64054 70.5983 2.64054 70.5957 2.63733 70.5985C2.63231 70.6011 2.63191 70.6103 2.6281 70.6147C2.62248 70.6155 2.61866 70.6186 2.61565 70.6246C2.61425 70.6342 2.60682 70.631 2.60281 70.6348C2.59779 70.6364 2.59499 70.6475 2.58897 70.6481C2.57753 70.6457 2.56669 70.6673 2.55385 70.6631C2.54639 70.6652 2.53938 70.6688 2.53318 70.6734C2.52679 70.6715 2.51995 70.6714 2.51351 70.6732C2.48181 70.6768 2.52435 70.6844 2.52435 70.7119L2.52555 70.722C2.52595 70.726 2.51151 70.7133 2.50508 70.7097L2.45512 70.675L2.40475 70.64L2.37927 70.6224L2.36662 70.6135L2.36021 70.6091L2.35859 70.6079C2.47739 70.7145 2.39151 70.6372 2.418 70.6613L2.41779 70.6611L2.41719 70.6603C2.41134 70.6532 2.4041 70.6474 2.39592 70.6431C2.38508 70.6394 2.37566 70.634 2.37284 70.6246C2.33512 70.6011 2.32649 70.5517 2.31826 70.4987C2.31144 70.4748 2.32749 70.4338 2.32589 70.4226C2.32549 70.4268 2.32267 70.4304 2.31806 70.4324C2.31527 70.4336 2.31228 70.4343 2.30923 70.4344H2.30382C2.30141 70.4346 2.31184 70.4236 2.31545 70.4188L2.37806 70.3425L2.41017 70.3037L2.42642 70.2838L2.43044 70.279L2.38147 70.333L2.38268 70.3318L2.38488 70.3294L2.39411 70.3204C2.61736 70.1008 2.8436 69.8841 3.07278 69.6706C3.07418 69.623 2.6889 69.9156 3.07519 69.5309C3.98964 68.6588 3.4095 69.3979 3.74361 69.1736C3.38342 69.5013 3.13037 69.7519 2.92509 69.9782C2.82255 70.0913 2.73184 70.1983 2.64536 70.3059L2.51833 70.4678L2.51813 70.4682L2.58094 70.3991L2.58054 70.3997L2.57973 70.4013L2.57793 70.4041L2.57452 70.4095L2.5677 70.4206L2.55425 70.4425L2.52736 70.4872C2.51151 70.5151 2.48643 70.5515 2.4778 70.5734C2.46817 70.5824 2.52716 70.5346 2.57713 70.4951C2.58968 70.485 2.60232 70.475 2.61505 70.465L2.63271 70.4511L2.63693 70.4477L2.63793 70.4469L2.63853 70.4465L2.63873 70.4463L2.63893 70.4461L2.5707 70.521L2.57291 70.5196L2.58114 70.5145L2.61606 70.4919C2.62348 70.4439 3.05573 70.0126 3.16368 69.8662L3.35572 69.8353C3.21526 69.7979 3.84074 69.0425 4.41907 68.5345C3.93285 69.1453 4.07833 68.9943 4.02997 69.2437C4.89245 68.5783 4.80034 68.2916 5.76094 67.5398C5.66803 67.5755 4.89666 68.2986 5.52275 67.6337C6.05512 67.0974 6.05312 67.2372 6.43499 66.902C5.9556 67.2305 6.00456 67.0725 5.4776 67.4211C4.51519 68.3578 5.09412 67.8038 4.13031 68.6963L4.85593 67.8514C4.03659 68.6409 4.18389 68.35 4.08917 68.3877C5.39252 66.944 5.24081 67.4679 6.1085 66.5679C6.5871 66.1938 5.28817 67.4034 6.01057 66.7922C6.8293 65.9579 6.24817 66.6523 7.21158 65.7599L7.02155 65.8808C7.26215 65.5543 7.59787 65.3288 7.9348 65.0094C8.31948 64.6722 7.78228 65.6724 9.27687 64.1989C9.18316 64.2508 9.14323 64.2644 9.1346 64.2558L7.05867 65.0798C8.72507 63.4275 10.3711 61.7552 11.9965 60.0632C12.2863 59.5339 10.6488 61.2019 10.7008 61.0412L9.92865 61.8573C10.025 61.8641 11.6145 60.2152 10.9862 61.0204C9.54155 62.3809 8.96222 63.0739 7.52041 64.2939C7.81319 63.7608 9.30075 62.5695 10.0749 61.6135C9.71814 61.9834 9.39687 62.2759 9.08041 62.5554L11.6456 59.907L11.8838 59.7292C11.2719 60.3638 10.8497 60.8037 10.7983 60.8633C11.6169 60.0294 12.3838 59.4022 12.5283 59.4361L12.384 59.5855L12.7117 59.3158C12.9014 59.1176 13.0902 58.9188 13.278 58.7211ZM5.8665 5.1273C5.90844 5.18587 5.93814 5.23528 5.95499 5.27671C5.93753 5.23348 5.97987 5.25898 5.8665 5.1273ZM6.1697 68.6957L4.53626 70.3668L3.72937 71.1936L3.5293 71.3978C3.50161 71.429 3.45044 71.4721 3.40288 71.5113C3.35371 71.5488 3.31037 71.5948 3.25478 71.6231C3.04368 71.7579 2.79525 71.8181 2.54943 71.8243C2.77077 71.8032 2.98449 71.747 3.15646 71.6308C3.24756 71.5818 3.32101 71.5129 3.39064 71.444C3.4697 71.3731 3.5004 71.3205 3.55418 71.2603L4.08014 70.6212C4.38897 70.2407 4.60409 69.9612 4.66509 69.8461C4.72609 69.731 4.63258 69.7804 4.32395 70.0575C4.16964 70.1959 3.96154 70.3913 3.69225 70.6515L3.24114 71.0914C3.1992 71.136 3.15766 71.1661 3.11552 71.2001L3.05171 71.2517L2.97666 71.29L2.9004 71.3302L2.81552 71.3547C2.78662 71.3625 2.75833 71.3735 2.72843 71.3794L2.63612 71.3878C2.63512 71.4003 2.37726 71.3641 2.38047 71.3551C2.50649 71.3693 2.6606 71.3766 2.81552 71.3177C2.89619 71.2995 2.96803 71.2486 3.04388 71.2053L3.14783 71.1187C3.18415 71.0884 3.22448 71.0432 3.26341 71.0055C3.59735 70.6705 3.93544 70.3396 4.2776 70.0128C4.78664 69.6145 5.29876 69.22 5.81392 68.8295L6.56944 68.262C6.7667 68.1165 6.89212 68.0281 6.89232 68.0379C6.74703 68.2801 6.40971 68.508 6.07118 68.874L6.1697 68.6957ZM6.66055 67.6217C7.26757 66.9799 7.16423 67.1605 7.29647 67.0988L6.62443 67.7394C6.69888 67.648 6.72757 67.5946 6.66055 67.6217ZM7.29406 67.1709C7.22442 67.2416 7.16603 67.303 7.13934 67.339L7.29406 67.1709ZM7.76102 63.9233L7.69459 63.9851L8.13767 63.5289C8.08329 63.5942 7.97313 63.7122 7.76102 63.9233ZM6.57506 65.272L6.36175 65.3559L6.77734 64.9284C6.75908 65.0047 6.73479 65.0792 6.57506 65.272ZM2.69753 69.5421C2.61385 69.5869 2.49686 69.6738 2.36623 69.7786L2.16234 69.9459L2.10997 69.9897L2.08368 70.0117L2.07063 70.0228L2.07024 70.0232C2.07907 70.0132 2.04957 70.0455 2.0901 70.0013L2.0895 70.0021L2.08789 70.0037L2.08488 70.0069L2.07887 70.0128L1.98375 70.1105C1.94422 70.1467 1.9382 70.166 1.92435 70.1866C1.91131 70.2081 1.89345 70.2246 1.8792 70.2487C1.85933 70.3041 1.82281 70.3529 1.81178 70.4017C1.79873 70.4497 1.78027 70.4915 1.76722 70.5242C1.7588 70.5569 1.74696 70.58 1.73191 70.5892C1.71947 70.6232 1.70281 70.5876 1.68916 70.5091L1.69258 70.3641C1.6994 70.3091 1.71967 70.2499 1.73331 70.1871C1.74715 70.1559 1.76421 70.127 1.77926 70.0961C1.79572 70.0656 1.80435 70.0342 1.83505 70.0019L1.91372 69.9045L1.93358 69.88C1.93864 69.8749 1.94365 69.8698 1.94863 69.8646L1.99358 69.819C2.11378 69.6975 2.23739 69.572 2.36481 69.4427C2.38669 69.4467 2.4501 69.4078 2.54703 69.3347C2.30402 69.5981 2.15632 69.7887 2.31425 69.7409C2.84823 68.9732 2.98509 69.2441 3.66094 68.512C3.9487 68.3512 2.93693 69.3546 2.69753 69.5421ZM23.1822 19.8078C23.1544 19.7956 23.0655 19.747 22.9436 19.6755L23.3974 20.2134C24.3046 21.0756 25.1442 21.6543 25.8333 22.5573C26.235 22.9011 26.4939 23.0418 26.7333 23.1838C26.5467 23.0055 26.3707 22.84 26.2206 22.7059C24.1412 20.3212 24.8819 21.7152 23.1822 19.8078ZM33.548 29.7863C33.4621 29.6899 33.4437 29.6429 33.4437 29.6429C35.2637 31.775 36.8498 33.4438 37.9256 34.4992C37.6533 34.358 36.6435 33.4554 36.1611 33.0298L36.4908 33.5042L36.8011 33.6966L37.4348 34.4592C37.189 34.314 36.6333 33.7418 36.2167 33.4042C36.1979 33.3576 35.0727 32.069 34.7797 31.6876L35.7989 32.5978C35.5168 32.3587 34.2498 31.067 33.7595 30.5429C33.7868 30.4961 34.7213 31.3105 34.7512 31.5001C34.9106 31.5493 33.8996 30.5443 34.5983 31.1208C33.899 30.3098 32.6438 29.1612 32.0568 28.6327L31.8696 28.6305C31.2197 28.0565 31.5662 28.1079 30.7832 27.4368C31.6619 28.345 30.5301 27.387 31.2367 28.1021C30.9738 27.9107 31.1342 28.1946 30.4262 27.478C29.9536 26.7656 29.596 26.8063 29.1415 26.1405C28.7275 25.8054 29.4722 26.6152 28.7165 25.8973C27.9325 24.9915 28.0276 24.9943 28.0643 24.8536C28.8825 25.6162 28.8395 25.8533 29.5099 26.4758L28.3724 25.0435C28.6318 25.258 28.81 25.4305 28.9515 25.5831C28.701 25.317 28.5034 25.0759 28.3461 24.8578L28.0934 24.5171C28.8255 25.2423 29.477 25.8849 29.6297 25.9612L29.5722 25.8182C29.8708 26.0357 30.2617 26.4856 30.4246 26.7101C31.0746 27.3649 31.6683 28.0739 31.8674 28.1603L31.6583 27.8743C32.4516 28.6858 32.536 28.7803 33.548 29.7863ZM18.4156 56.5964C18.7448 55.9549 19.1426 55.282 21.4467 53.0496L21.2566 53.2165C22.3043 51.9788 23.6249 51.1266 24.91 49.6313C24.1729 50.2445 24.2149 50.2136 23.3305 50.8204L24.1021 50.1435C23.8144 50.2578 24.5839 49.5827 25.1131 49.0492L24.54 49.4146C24.2494 49.7616 23.4305 50.5957 23.4315 50.5483C23.6245 50.3792 22.4657 51.7643 21.742 52.4233C21.7442 52.2832 23.2368 50.8573 22.4693 51.3937C23.0933 50.8686 23.0956 50.729 23.7224 50.1549C23.097 50.6814 23.4847 50.2029 23.0038 50.5796L24.0156 49.6222C24.0182 49.5736 22.5251 50.9997 23.2493 50.111C23.6815 49.7542 24.6929 48.6596 24.7868 48.715L24.788 48.6679C25.5124 47.9167 25.2196 48.4496 26.0865 47.5045C26.1349 47.5312 25.9874 47.7293 25.6539 48.045C25.3619 48.3018 25.2682 48.2926 24.6907 48.8452C24.4948 49.156 25.3673 48.159 25.0727 48.6482C24.9265 48.8913 23.5328 50.0923 24.0588 49.7909L24.782 49.0411C24.8759 49.0966 25.4069 48.561 25.4524 48.6359C25.932 48.2145 26.2742 47.7073 26.8011 47.3137C27.0411 47.1715 26.7967 47.593 27.5211 46.7957C28.0071 46.0933 29.7873 44.3688 30.4619 43.7307L31.0862 43.2058C31.0832 43.3002 29.9785 44.2929 30.4083 43.9849L31.3254 43.1101L31.2273 43.1504C31.5188 42.8482 31.8544 42.5766 32.1427 42.3233C31.8086 42.5476 31.1825 43.2123 31.2331 43.0071C31.6397 42.5729 31.6752 42.4802 32.0783 42.1097C31.988 42.1884 31.9075 42.2531 31.9071 42.2316C32.7277 41.3499 32.8194 41.4991 33.059 41.3119C34.0194 40.56 32.2874 42.2647 32.4776 42.2356L35.0284 39.7887C34.7888 39.9761 34.5479 40.1654 34.5967 40.0532C35.1758 39.4068 34.5502 39.9793 35.4174 39.1257C35.4628 39.2927 36.5713 38.1121 37.2431 37.5679C37.4843 37.2414 37.5343 37.1744 36.9096 37.792C36.9086 37.6555 37.7825 36.841 38.0593 36.5537C38.0956 36.5244 38.1312 36.4943 38.166 36.4633C38.2477 36.3907 38.3556 36.3079 38.4478 36.2089C38.4939 36.1595 38.5431 36.1116 38.5728 36.0545C38.6067 36.0001 38.6436 35.9497 38.6599 35.8975C38.629 36.0624 38.6157 36.1118 38.6884 36.0403C38.704 36.0214 38.7297 35.9967 38.749 35.9592C38.767 35.9214 38.7877 35.8742 38.8112 35.8174C38.8354 35.7608 38.8397 35.6899 38.8557 35.611C38.8625 35.5213 38.859 35.4311 38.8453 35.3421L38.8525 35.2943C38.9127 35.5015 38.9219 35.7501 38.8375 35.9859C38.7584 36.2268 38.5686 36.4138 38.3892 36.6123L37.8425 37.186L37.3395 37.7014C37.0176 38.0241 36.7298 38.2954 36.5187 38.4576L36.7102 38.3358C35.7447 39.413 34.3547 40.4272 34.0128 41.0264C34.1083 41.0346 33.8187 41.2427 33.9114 41.2991L33.0981 41.9906L33.2891 41.8685L31.9882 43.1265L32.0362 43.1066L30.3975 44.3992C30.3634 44.3684 30.3931 44.319 30.1655 44.4968C29.9861 44.6469 29.8154 44.8069 29.6542 44.9762C29.653 44.977 29.653 44.9769 29.6526 44.9767L29.653 44.9771C29.3476 45.2995 29.1845 45.5543 28.8156 45.9585L30.0176 44.7811C30.1704 44.7397 30.1264 44.8975 29.58 45.5168C29.8214 45.2813 29.9647 45.2248 29.6749 45.5252C29.6279 45.5431 28.8572 46.2668 29.0986 45.9391C27.9441 47.0452 26.2533 49.0126 24.4258 50.6176C25.7263 49.452 23.5085 51.6758 24.9048 50.3347C24.0347 51.3746 23.9925 51.067 23.0289 52.0509C22.9776 52.1653 23.5569 51.5187 23.8442 51.3579C22.2547 53.0062 20.9594 53.9375 19.4143 55.5248L19.4163 55.6603C19.1095 55.9469 18.7693 56.2655 18.4156 56.5964ZM15.2197 59.5979L14.2745 60.4887L14.3628 60.3969L13.3982 61.2439C13.9296 60.6627 14.2218 60.222 13.4046 60.9629C13.499 60.9258 13.3055 61.1876 13.5939 60.9342C13.1117 61.4956 12.0024 62.6763 12.1976 62.2751C13.3031 61.3738 12.2992 61.9101 13.1634 61.1977C12.671 61.5513 12.2811 61.9994 11.8498 62.3671C12.324 62.0093 11.8816 62.5918 11.282 63.2411C10.9924 63.4952 10.2698 64.2443 9.78898 64.667C9.8867 64.4431 9.45526 64.7987 10.1779 64.0492C9.76737 64.4091 9.38069 64.7948 9.02022 65.2041C9.21747 65.03 9.55118 64.7144 9.55179 64.7598C9.30717 65.1192 8.94958 65.4692 8.77861 65.6886L8.30101 66.1424C8.34115 66.0912 8.37346 66.0447 8.39272 66.0075L7.817 66.4671C8.53881 65.8103 8.10717 66.1204 8.06102 66.0922C8.15433 66.1479 7.62536 66.5438 7.38637 66.7763L7.82162 66.1874C7.53326 66.3948 7.00108 67.1153 7.05265 66.9087C8.11219 65.7945 8.54523 65.3915 9.5554 64.4353L9.21647 64.8939C10.3731 63.8319 9.79761 64.1078 11.0498 62.8709C11.6249 62.4109 12.9321 61.0099 13.0701 61.0959C12.8793 61.2173 13.748 60.2246 14.227 59.8501C14.8027 59.4823 16.2471 58.0759 15.8608 58.5524C15.4753 58.9375 14.8988 59.3979 14.6548 59.7728L15.426 59.0496L14.9899 59.5935C15.2243 59.3214 15.2542 59.4001 15.2197 59.5979ZM3.84375 66.3553L3.87124 66.3252L3.83953 66.3575L3.84375 66.3553Z" fill="#F16A50"/>
</svg>
