<svg width="40" height="73" viewBox="0 0 40 73" fill="none" xmlns="http://www.w3.org/2000/svg">
  <path
    d="M26.723 58.7211L26.4924 58.5177L26.6221 58.6142L26.0768 58.0365C25.995 57.9643 25.9143 57.8907 25.835 57.8157C25.8736 57.8498 25.9083 57.8713 25.9324 57.8823L25.759 57.6958C25.2473 57.3127 24.0846 56.2495 23.7254 55.9664C23.2723 55.57 22.7353 55.067 22.4128 54.7375C22.7148 55.0399 23.13 55.427 23.0441 55.2726C22.4646 54.6254 22.2695 54.2247 21.1171 53.2588L21.7418 53.8761L20.2055 52.6187C19.7704 52.0756 20.9722 53.2462 21.2154 53.3912C20.059 52.3751 19.3301 51.2989 18.7081 50.9133C18.7063 50.774 18.7022 50.5405 17.9802 49.8375C18.4169 50.428 17.5006 49.4622 17.8392 49.9662C17.5524 49.7604 17.0662 49.1494 16.9735 49.16L17.069 49.1978C15.9575 47.8767 15.3858 47.6504 14.8068 47.188C13.3163 45.7644 12.6898 45.0531 11.4856 43.8807C11.4852 43.7881 11.2881 43.339 10.8047 42.8689C10.5195 42.7103 9.41126 41.668 9.22042 41.6384C10.0422 42.5209 9.98778 42.2661 10.5185 42.7557C10.8605 43.2627 10.4738 42.8769 11.0056 43.505C10.5685 43.006 8.83855 41.4409 8.40309 40.8517L8.59573 41.021C7.82235 40.1578 7.8645 39.8046 6.37553 38.5655L5.67319 37.9661C5.71272 37.9894 5.72576 37.9836 5.74964 37.9932C5.21947 37.4585 5.05011 37.241 4.85686 37.0195C4.80601 36.9609 4.75396 36.9034 4.70074 36.8469C4.62869 36.771 4.5551 36.6966 4.48001 36.6236C4.30703 36.4547 4.07626 36.2409 3.71405 35.9174C3.82583 36.0172 3.77706 35.9513 3.88864 36.0513C3.74482 35.89 3.59557 35.7336 3.44114 35.5823C3.72589 35.2971 3.98155 35.0126 4.23178 34.7303L4.59961 34.3154L4.90783 33.9737C5.28529 33.7321 4.90021 34.1124 4.75673 34.3512C5.96596 33.2022 7.12784 31.8202 7.78082 31.0096L8.58289 30.2915C8.15828 30.7682 7.67607 31.3871 7.85466 31.2903C8.26062 30.8606 8.14784 30.9096 8.75386 30.3335C8.69547 30.4766 8.48657 30.7634 8.26162 31.0939C9.56035 29.9472 8.38383 30.6706 9.37393 29.9488C9.76022 29.567 9.92156 29.2825 9.91193 29.1892L10.6781 28.5631C10.6897 28.4207 11.548 27.5609 12.103 26.9902C12.1436 26.8935 11.5777 27.3718 11.389 27.6097C11.3794 27.5165 11.9561 26.8955 12.3438 26.5126C12.6238 26.5095 14.8548 23.9801 14.5608 24.5956C16.2523 22.827 18.6778 20.3915 19.766 19.1962C20.1822 18.8589 20.9544 18.0964 20.5578 18.6191C21.9563 17.232 22.535 16.3752 23.9604 15.0355C24.0924 14.9387 23.3343 15.6594 23.4298 15.6562C24.2812 14.701 25.1383 14.0765 26.5085 12.643C26.2743 12.8804 26.2338 12.9772 26.2153 13.0242C26.1677 13.026 26.7441 12.4047 27.086 12.0212C27.3025 11.83 26.8301 12.3081 26.9624 12.2117C29.7477 9.58007 31.6304 7.33755 34.34 4.65995C33.5662 5.42453 33.3659 5.80522 33.3954 5.85084L34.1534 5.1016C34.399 4.76673 34.9671 4.20316 35.4076 3.69776C35.483 3.65692 35.7326 3.44596 35.5187 3.70155C36.3122 3.0061 36.8536 2.38536 37.4317 1.7172L37.8766 1.20523L37.9334 1.13989L37.9673 1.08749C37.9906 1.05343 38.0175 1.02175 38.0291 0.980717C38.0658 0.907208 38.0847 0.824536 38.0917 0.741465C38.0977 0.657796 38.0895 0.571138 38.0632 0.488864C38.0474 0.450416 38.0379 0.399219 38.0183 0.379298C38.0104 0.365484 38.0037 0.35102 37.9984 0.336069L37.9942 0.323918L37.9771 0.303798L37.943 0.263357L37.8742 0.181481L37.8655 0.171123L37.8643 0.169927C37.9121 0.222518 37.877 0.18407 37.8874 0.195625L37.8856 0.19443L37.882 0.19184L37.868 0.181481L37.8401 0.160166L37.7861 0.114347C37.7643 0.104348 37.7429 0.0935829 37.7219 0.0820741C37.6767 0.0509971 37.644 0.0505998 37.6109 0.0330692C37.6031 0.022511 37.5595 0.0183273 37.5192 0.0141438L37.3996 0L37.5348 0.00159282C37.5533 0.00258887 37.587 0.000397535 37.5991 0.00438176C37.6286 0.0125341 37.6589 0.017478 37.6896 0.0191244L37.756 0.0454196C37.807 0.0579699 37.8521 0.0896447 37.9027 0.122515L37.9223 0.134467L37.9326 0.140443L37.9374 0.143432L37.9388 0.144229L37.9394 0.144627C37.9312 0.135463 37.9591 0.165744 37.9209 0.12391L37.9237 0.126898L37.9697 0.173912C38.0009 0.206062 38.032 0.2382 38.0632 0.270329C38.1186 0.34822 38.1973 0.491454 38.2151 0.643651C38.2272 0.797479 38.1987 0.951781 38.1322 1.09128C38.0899 1.15662 38.0582 1.21419 38.0024 1.27993L37.8485 1.46042L37.531 1.83294L38.1439 1.35225L37.2533 2.40348C37.8834 1.868 38.2825 1.28252 38.4053 1.20742C38.3921 1.25623 38.3538 1.31001 38.3098 1.36798L38.2422 1.45683L38.1764 1.52994C38.0913 1.62537 38.0227 1.70903 38.0369 1.73234C38.1842 1.59628 38.2896 1.50962 38.3889 1.37695C38.4399 1.32017 38.469 1.25842 38.4954 1.20105C38.5223 1.14387 38.5488 1.09228 38.5577 1.0361L38.5916 0.875533L38.5956 0.706602C38.601 0.647835 38.5856 0.58608 38.5763 0.517949C38.5705 0.449221 38.547 0.377704 38.5187 0.298019C38.6167 0.498426 38.6534 0.769354 38.5735 1.04407C38.5342 1.17973 38.4712 1.32017 38.3728 1.4405C38.3504 1.47018 38.3243 1.50664 38.3028 1.53114L38.2384 1.60345L38.1064 1.75007C37.7262 2.16813 37.3403 2.581 36.9487 2.98857L34.7498 5.26476C34.577 5.45819 34.873 5.07471 34.891 5.0281C34.4191 5.506 34.089 5.74625 33.5134 6.3662C33.2006 6.7955 33.8417 6.12754 34.1437 5.84028C34.155 5.93232 34.0031 6.07694 33.6814 6.41162C33.5407 6.41381 31.8489 8.18201 31.34 8.51947C29.602 10.2881 31.8007 8.41827 30.0527 10.0936L29.4603 10.5243C28.5244 11.5752 27.2889 12.9097 26.1433 14.0133L26.3784 13.7747C26.5031 13.5838 26.2203 13.8229 26.0871 13.9207C25.2003 14.7337 24.5301 15.5899 23.9341 16.0242C23.0457 17.0734 21.4863 18.7452 20.4178 19.8925C20.0132 20.0865 21.7799 18.3641 22.1772 17.84L21.1655 18.8454C21.7897 18.2229 21.9972 17.938 22.3129 17.5065C21.4063 18.3681 21.206 18.7484 20.3913 19.6098C20.4284 19.5165 20.2986 19.6108 19.9099 19.995L19.8691 20.1733C19.8563 20.1747 19.8081 20.2122 19.6839 20.3267L18.2297 21.8545C18.5768 21.5686 18.6527 21.6134 19.0402 21.2304C18.8616 21.3272 19.1816 20.9937 19.5695 20.6108C19.276 20.9923 19.9849 20.2743 20.0142 20.3196C19.2366 21.0877 18.2931 22.0429 17.8036 22.5667L17.5745 22.6673C16.8192 23.385 16.0741 24.1952 15.5541 24.6745L15.6784 24.4839C14.7719 25.3449 13.9398 26.2527 13.0901 26.9724C12.3721 27.8302 11.437 28.8793 10.8669 29.5968C10.6036 30.0222 8.44222 31.7983 7.66663 32.799C7.5976 32.8498 8.21707 32.1292 8.49018 31.7961C7.88416 32.3724 7.51513 32.9424 7.24242 33.041C8.60276 31.7483 7.10155 33.0432 7.67667 32.4232C7.055 33.0436 6.41346 33.7117 6.13874 34.046C7.1467 33.0438 5.90034 34.5207 6.88382 33.4693C6.54188 33.8777 6.12489 34.3411 5.677 34.8122L5.24255 35.266C5.13515 35.3742 5.02467 35.4794 4.91125 35.5813L4.96924 35.6461C4.89419 35.6461 4.91647 35.7025 5.07861 35.8943C5.08242 35.8983 5.29934 36.0057 5.29553 36.0019C5.39566 36.111 5.27646 36.0246 5.17091 35.9543C5.06737 35.8857 4.97767 35.8333 5.21105 36.084C5.29593 36.1453 5.33606 36.1696 5.50683 36.3286C5.6588 36.4691 5.80859 36.6118 5.95613 36.7569L6.89948 37.7008C7.51995 38.3235 8.08624 38.8725 8.37219 38.9857C9.00089 39.7447 6.97774 37.738 7.94456 38.863C7.27172 38.3183 6.50035 37.4113 6.21319 37.2966C6.83627 37.8665 6.35908 37.5854 6.74436 37.9697L7.46496 38.5799L7.32048 38.4301C8.52189 39.4618 10.2581 41.2626 11.7025 42.6693C13.0008 43.7865 13.96 44.4909 15.4042 45.9433C14.9244 45.5676 16.5627 47.1902 15.5547 46.374C16.1826 47.086 16.8996 47.6928 16.9504 47.6687C16.3715 47.0683 16.7543 47.4502 16.2743 46.937C16.6562 47.2258 17.4298 47.998 17.7188 48.3438C17.5743 48.1938 17.6218 48.2582 17.5751 48.24C18.2511 48.9717 17.959 48.5315 18.4885 49.0195C18.5869 49.2435 19.599 50.1557 20.0325 50.6511L20.7992 51.2324C20.3682 50.9228 21.4255 51.8974 21.4771 52.0577C22.0041 52.4974 22.4845 52.8277 23.2069 53.5767C22.8707 53.3048 23.8358 54.2901 23.788 54.3628C24.9946 55.6756 26.0469 56.2778 27.1578 57.553C27.1067 57.5301 26.8251 57.3294 27.16 57.692C27.4526 57.949 27.9282 58.4353 28.23 58.7217L28.2188 58.7142L28.236 58.7277C28.3835 58.8678 28.4821 58.9506 28.5001 58.9395C29.0644 59.3821 29.3851 59.5803 30.4289 60.517C30.4251 60.3758 29.5594 59.5696 29.174 59.2311L28.7917 58.9873C28.596 58.5857 27.8772 58.1155 27.684 57.854C28.4026 58.3241 30.0892 60.0583 31.1943 61.0059C30.6629 60.2869 29.312 58.9158 28.1084 57.7442L28.5918 58.3064L27.9669 57.6886L28.4969 58.361C27.9192 57.7615 27.3896 57.2735 26.8598 56.7392C27.4863 57.3583 27.6344 57.695 27.2957 57.3289C26.667 56.5699 26.5255 56.6523 25.9972 56.1196C26.2873 56.4202 26.6716 56.8041 26.3835 56.5968C25.4166 55.472 25.0789 55.2441 24.213 54.2082C24.216 54.4403 23.0086 53.0352 22.771 52.9872L23.2045 53.4367L22.1949 52.5729C21.4217 51.6187 23.0584 53.24 21.8054 51.8639C20.5994 50.6435 20.5097 50.7953 19.5434 49.8538C19.9273 50.0989 20.7451 50.7945 21.5156 51.5631L21.0808 51.066C21.3679 51.2724 22.4281 52.3414 22.9572 52.8747C21.9976 52.0778 23.3455 53.308 23.6849 53.767C23.8247 53.7743 23.2486 53.2233 23.9696 53.8335C23.3425 53.2135 23.2456 53.1283 22.4744 52.3131C24.1651 54.0514 24.2513 53.6211 25.6978 55.1674C24.9756 54.5098 25.8437 55.5019 25.8948 55.6164C26.2285 55.932 26.9052 56.5724 27.1936 56.8256L27.0431 56.4866C27.9593 57.3141 28.0608 57.8169 29.1693 58.7217C29.3578 58.795 28.3004 57.8207 28.4933 57.9898C29.9351 59.302 30.2786 59.9491 31.4337 61.2386C31.5318 61.2788 31.5782 61.2045 32.0576 61.5804C31.8655 61.5035 32.1537 61.848 31.6287 61.4103C32.0148 61.8416 32.543 62.2822 32.9271 62.6191C32.1067 61.738 33.3589 62.8841 33.5506 63.0062C33.9832 63.455 33.3585 62.9291 33.0698 62.6755C33.4095 63.0434 33.747 63.546 34.0346 63.661C33.9882 63.7349 32.8831 62.8335 32.2089 62.1954L32.6429 62.6456C32.3064 62.3729 32.2578 62.3073 31.8268 61.8607C32.2113 62.3354 32.117 62.3444 31.9735 62.2874C31.9257 62.2227 32.0193 62.3044 31.9739 62.2422C31.6346 61.8747 31.3458 61.6211 31.396 61.7346C30.9958 61.4983 31.8372 62.2733 32.0371 62.5522L32.5946 63.0735L34.6982 64.6445C35.5159 65.3959 35.8075 65.8095 36.3597 66.4356L36.5917 66.5276C37.2696 67.2149 37.894 67.8785 37.3667 67.5303C37.3653 67.4827 37.2694 67.3984 37.1239 67.2474C37.0946 67.2372 37.0536 67.2099 37.0049 67.1723C36.9864 67.1621 36.9746 67.1583 36.9587 67.1508L38.2328 68.3363C36.8857 67.2 38.0439 68.4 37.7118 68.3158C38.0077 68.5913 38.3035 68.8668 38.5994 69.1423L38.7092 69.2445L38.8522 69.4048L38.8916 69.4497C38.8956 69.4531 38.9078 69.4704 38.9195 69.4875L38.9516 69.5357C38.9925 69.5985 39.026 69.6559 39.0521 69.7033C39.1049 69.7991 39.1288 69.8547 39.126 69.8517C39.0671 69.7077 38.9943 69.5697 38.9086 69.4397C38.9021 69.4303 38.8954 69.4209 38.8888 69.4116L38.854 69.3622C38.8373 69.3373 38.8206 69.3123 38.8041 69.2873L38.7997 69.2801L38.7991 69.2794L38.7413 69.2158L38.7401 69.214L38.7377 69.2108L38.729 69.1995L38.7166 69.1811C38.7039 69.161 38.7072 69.1568 38.722 69.1648C38.7294 69.1688 38.7397 69.1758 38.7525 69.1851L38.7625 69.1927L38.7633 69.1933L38.8233 69.259L38.8246 69.2602L38.8272 69.2626L38.8322 69.2674L38.8542 69.2891C38.8864 69.3218 38.9229 69.3584 38.9678 69.4086C39.0517 69.5236 39.1378 69.6644 39.205 69.8065C39.2502 69.9268 39.2927 70.0515 39.3206 70.1682C39.3405 70.2868 39.3531 70.3979 39.3611 70.4888C39.3445 70.546 39.3321 70.6044 39.324 70.6635C39.3078 70.7521 39.2977 70.8695 39.2516 71.0023C39.2313 71.0691 39.208 71.1408 39.1815 71.2157C39.148 71.2878 39.1095 71.3633 39.0674 71.4408C39.028 71.5205 38.9757 71.5946 38.9153 71.6677L38.8243 71.7789L38.7766 71.8342L38.7706 71.841L38.6999 71.9044L38.6925 71.9107L38.6775 71.9235L38.5556 72.0281C38.4718 72.0894 38.346 72.1657 38.2344 72.2225L38.1473 72.2651L38.0736 72.291L37.9243 72.3386C37.825 72.3723 37.7235 72.3878 37.6217 72.3978C37.4199 72.4281 37.2212 72.4044 37.0406 72.3767C36.862 72.3317 36.6971 72.2846 36.5676 72.2077L36.6549 72.2289C36.5349 72.1625 36.3987 72.0974 36.2811 71.9912C36.2209 71.9418 36.1558 71.8858 36.0995 71.8332L36.0043 71.7346L35.5837 71.3115C35.2976 71.0295 35.0068 70.7521 34.7116 70.4794C34.7116 70.5254 33.9445 69.9895 33.562 69.7457C34.4104 70.6394 33.8636 70.1521 33.8907 70.2644C33.804 70.1708 33.6423 70.0085 33.6144 69.9985C33.4693 69.8939 33.7578 70.1933 33.7597 70.2405C34.2405 70.6858 34.7223 71.1434 35.1435 71.5247C35.3321 71.6972 35.525 71.8652 35.7218 72.0285L35.8743 72.1512C35.964 72.2221 36.0529 72.2854 36.1378 72.3404C36.3114 72.445 36.4837 72.5084 36.6236 72.5512C36.4282 72.446 36.2431 72.3526 36.0932 72.2267C36.0188 72.1693 35.9323 72.0992 35.8743 72.0496L35.7718 71.9645C35.6337 71.852 35.4894 71.7366 35.3445 71.5637C35.4846 71.6692 35.6203 71.7803 35.7513 71.8966C35.7862 71.9279 35.8217 71.9593 35.8577 71.9918L35.9223 72.05L36.0453 72.152C36.2082 72.2926 36.4065 72.398 36.617 72.492C37.0755 72.6712 37.5812 72.6927 38.0534 72.553C38.1158 72.5345 38.1782 72.5145 38.2404 72.4926C38.3163 72.4592 38.3929 72.4213 38.4678 72.3797C38.5428 72.338 38.6167 72.2926 38.6877 72.2446C38.7098 72.2297 38.7162 72.2243 38.7208 72.2205L38.7395 72.2056L38.777 72.1757L38.8526 72.1149L38.8621 72.1071L38.8669 72.1034L38.9558 72.0233L38.9602 72.0185L38.9953 71.9797L39.0648 71.9002C39.1565 71.7918 39.246 71.6804 39.3118 71.5486L39.3792 71.4478C39.4205 71.3868 39.4703 71.3033 39.507 71.2127C39.5468 71.1232 39.5829 71.0306 39.6082 70.9605C39.6316 70.8902 39.6403 70.8414 39.6403 70.8414L39.6501 70.7376C39.6535 70.6714 39.666 70.5766 39.6585 70.4639C39.6494 70.3352 39.6331 70.2072 39.6098 70.0804C39.571 69.9405 39.5331 69.8053 39.4667 69.6519C39.4039 69.5228 39.3316 69.3986 39.2504 69.2801L39.2106 69.224C39.195 69.202 39.1972 69.2074 39.1896 69.1979L39.0726 69.0672L38.9855 68.9718L38.9787 68.9656L38.9654 68.9532L38.9409 68.9309L38.9012 68.8943C38.8791 68.8739 38.8663 68.8626 38.8663 68.8626C38.9108 68.899 38.9474 68.9267 38.9793 68.9495L38.9911 68.9576L38.9967 68.9616L38.9971 68.962L39.079 69.0517L39.0798 69.0522L39.081 69.0534L39.0838 69.0556L39.1039 69.0718L39.1408 69.1001L39.2086 69.1477L39.2433 69.1724C39.259 69.1863 39.2949 69.2323 39.3218 69.2668C39.38 69.3431 39.445 69.4371 39.514 69.5614L39.5652 69.6594L39.6009 69.7483C39.625 69.811 39.6499 69.8814 39.674 69.9601C39.7561 70.2694 39.8439 70.7527 39.5995 71.3846C39.6405 71.3119 39.7374 71.1155 39.7755 70.8258C39.7928 70.6802 39.8114 70.5137 39.7882 70.332C39.7798 70.2377 39.767 70.1438 39.7498 70.0507C39.7256 69.9555 39.6967 69.8575 39.6631 69.7588C39.6236 69.5937 39.4099 69.2341 39.3003 69.1022L39.2054 68.9937L39.091 68.867L39.0645 68.8419L39.0116 68.7917C38.8748 68.6627 38.7417 68.5299 38.6124 68.3934L38.2797 68.2166C38.4212 68.2713 37.3611 67.2024 38.179 67.8976C38.4934 68.1796 38.8078 68.4614 39.1223 68.7433L39.1494 68.7676L39.1627 68.7795L39.1693 68.7855L39.1709 68.7869L39.2708 68.8965L39.2738 68.8997L39.3627 68.9971L39.4021 69.0403C39.4031 69.0391 39.4312 69.0783 39.4442 69.0965L39.4912 69.164C39.551 69.2524 39.5989 69.3337 39.6363 69.4011C39.7111 69.5377 39.7432 69.6162 39.7398 69.6106C39.744 69.6168 39.7125 69.5266 39.6489 69.3915C39.6126 69.3149 39.5732 69.2398 39.5307 69.1664L39.4215 68.9879L39.3358 68.8433L39.2307 68.7275L39.2293 68.7257L39.2269 68.7224L39.2221 68.7158L39.2132 68.7038C39.2078 68.6965 39.2028 68.6899 39.199 68.6843C39.1912 68.6735 39.1864 68.6676 39.1864 68.6676L39.2321 68.7114L39.2375 68.7168L39.3481 68.8377L39.3593 68.8508L39.3846 68.8807C39.4029 68.902 39.4231 68.9263 39.4456 68.9524L39.4627 68.9728L39.4713 68.9831C39.4774 68.99 39.4831 68.9973 39.4882 69.005C39.6073 69.1702 39.7103 69.3464 39.7956 69.5311C39.8425 69.6447 39.8726 69.7449 39.9064 69.8589L39.9509 70.0276C39.9605 70.0848 39.9684 70.1427 39.9754 70.2007C40.0496 70.6671 39.9437 71.1384 39.8203 71.4679C39.7492 71.6296 39.6774 71.7607 39.626 71.8504C39.5761 71.9414 39.5375 71.9856 39.5375 71.9856C39.5375 71.9856 39.5449 71.9739 39.5584 71.9538C39.572 71.9338 39.5893 71.9038 39.6078 71.8661C39.6457 71.7916 39.6938 71.6906 39.7364 71.5882C39.7768 71.4958 39.8082 71.3998 39.8303 71.3015L39.8612 71.1681C39.8371 71.2577 39.8104 71.3444 39.7819 71.4274C39.7516 71.5095 39.7115 71.5862 39.6744 71.6611C39.6363 71.7358 39.5967 71.8071 39.5566 71.8751C39.5148 71.9416 39.4667 72.001 39.4211 72.0599C39.375 72.1183 39.3284 72.1737 39.2821 72.2263L39.2474 72.2651L39.2299 72.284L39.2257 72.2888L39.2235 72.2912L39.1081 72.3948L39.1041 72.3982L39.0734 72.4237C39.0326 72.4568 38.9943 72.4878 38.9586 72.5173C38.7553 72.6673 38.4465 72.8311 38.2894 72.8735C38.1174 72.9255 37.9671 72.9693 37.8336 72.9815C37.5658 73.0106 37.3777 73.0032 37.2308 72.9745C37.0841 72.9482 36.9782 72.9279 36.8767 72.8857C36.7633 72.8427 36.651 72.7972 36.5397 72.7492C36.4123 72.6809 36.2415 72.6006 36.0348 72.4486C35.9802 72.406 35.9264 72.3624 35.8735 72.3177L35.7862 72.242L35.7413 72.2014L35.7202 72.1807L35.543 72.0091C35.3683 71.8449 35.1913 71.6833 35.0118 71.5243C34.3898 71.0924 33.8116 70.5384 32.7994 69.4883C33.5692 70.2109 32.9423 69.4991 33.2783 69.725C32.5536 68.9279 32.2187 68.7486 31.7859 68.3915C31.6406 68.1492 31.5427 67.9719 32.2177 68.6562C32.4065 68.6383 31.3023 67.7829 31.3466 67.6153C29.0831 65.3746 29.1912 66.1589 26.6821 63.4036L26.8241 63.4592C25.0928 61.8468 24.1761 60.8348 22.5886 59.3259L21.4747 58.003C21.7651 58.2578 22.5824 58.907 22.2916 58.5138C22.776 59.2144 23.4463 59.8029 24.028 60.4981C24.1221 60.5348 23.8819 60.2549 23.7858 60.1244C24.1717 60.5095 24.3164 60.7513 24.8465 61.2398C24.8447 61.1928 24.3146 60.6121 24.7482 61.0157L25.3753 61.7735C26.3377 62.6647 25.9962 62.0665 27.0575 63.1821C26.7936 63.0406 26.2909 62.7159 25.8535 62.3105C26.3395 62.8191 25.1513 61.6862 25.5705 62.1745C26.3796 62.7992 26.6556 63.2146 27.6681 64.1078C27.5433 64.0088 27.4962 63.9969 27.2552 63.7688L28.6047 65.184C28.3141 64.7909 29.8087 66.2645 29.7577 66.0587C28.3115 64.5586 28.6988 65.0369 27.0579 63.3201C27.5526 63.7761 28.2473 64.3076 28.6087 64.5212C28.6203 64.5387 28.6422 64.5654 28.6926 64.6182C29.0273 64.7969 28.7857 64.5158 28.9259 64.3865C28.0605 63.7184 27.6256 63.1293 26.663 62.2836C26.4184 62.1878 27.0948 62.9 27.565 63.3285L26.7166 62.5839L26.908 62.7062L24.9041 60.6678C25.2926 61.0455 25.466 61.1324 25.699 61.2993C25.4401 61.0368 25.2003 60.7599 24.9463 60.465C24.9336 60.5927 24.8471 60.6059 24.5931 60.3513C23.3048 59.0387 22.6426 58.2554 22.2416 57.6972L22.0847 57.5514C22.231 57.8404 21.0276 56.7605 20.5492 56.4324C20.6441 56.3782 19.9215 55.7202 19.5834 55.3087C19.2972 55.1953 19.4457 55.5782 19.8336 56.1025C20.7948 56.9007 20.4073 56.5147 20.9359 56.8181L22.4259 58.1498L22.0408 57.9038C22.7172 58.6353 23.4864 59.2194 23.3453 59.2562C22.9125 58.9447 22.3321 58.2968 21.9021 57.9882L22.337 58.4847C21.4247 57.753 21.9986 57.9813 20.9391 57.0508C21.2307 57.4906 20.8432 56.9663 20.3648 56.5922C20.6554 56.9854 22.1443 58.3159 21.7155 58.146C21.14 57.6864 20.1196 56.2619 19.3046 55.7073L19.3528 55.7262C18.3561 54.7034 17.9263 54.423 17.5006 54.0923C17.1111 53.6229 16.457 53.09 15.985 52.6306L16.0339 52.6048L15.3589 51.9657C15.7412 52.2097 16.1299 52.7346 16.7062 53.2873L16.7054 53.1482C17.2757 53.8785 17.837 54.1861 18.4032 54.6293C17.606 53.9576 16.3392 52.5464 16.0299 52.5095L15.6442 51.9872L15.4008 51.7958C15.1139 51.4061 15.5435 51.6683 16.218 52.3065C16.3147 52.4376 16.3632 52.503 16.3141 52.483C16.651 52.7558 16.9857 52.9807 17.7095 53.7313L17.2779 53.3759C18.1941 54.2953 19.0584 55.1001 19.4423 55.3453C18.1414 53.9962 16.8398 52.692 15.5879 51.4555C15.0621 51.2459 14.537 50.8999 14.203 50.8587C13.3382 50.0537 12.1805 48.9444 11.5064 48.1689L11.6022 48.2066C11.2969 47.8775 10.9749 47.5642 10.6373 47.2679C10.3006 46.8573 10.9715 47.4462 10.7309 47.1659L9.48169 46.0232C9.62196 46.031 10.6319 47.033 11.1163 47.5045C11.0202 47.4203 10.8266 47.25 10.8763 47.3171C11.4071 47.8978 12.559 48.8175 12.707 49.1548C12.9954 49.408 12.0842 48.6769 12.9994 49.5953C13.5796 50.2427 13.8659 50.3565 13.959 50.3919C14.0066 50.3646 13.0434 49.3811 13.4276 49.6728C12.9434 49.2014 12.7042 49.0598 12.1271 48.4151C12.6069 48.8825 13.3285 49.4478 13.5234 49.7568C14.5329 50.6204 14.5741 50.3118 14.1408 49.8622C14.191 50.0218 12.3585 48.2279 13.519 49.5226C12.8945 49.0434 11.8827 48.0402 11.1143 47.3651L11.1613 47.3838L10.2446 46.5089C10.3909 46.6149 10.6795 46.8683 10.7256 46.84L9.37995 45.7037C10.1483 46.3324 8.99226 45.226 8.70309 44.8795C8.51226 44.804 7.98409 44.363 8.41794 44.8588C8.90095 45.421 8.75446 45.1311 9.23587 45.6005L8.46991 45.0198L8.42075 44.9534L7.93995 44.6234C7.02509 43.7048 8.51406 44.8516 7.26269 43.753L7.31526 44.0056C5.96516 42.6358 4.32589 40.783 3.31472 39.8718C3.6382 40.0789 3.8477 40.1036 3.53666 39.6861C3.93519 40.1162 4.77439 40.9423 5.38041 41.525C5.47733 41.6565 4.51593 40.9037 3.88964 40.2387C4.03834 40.7144 5.61921 41.7577 5.5281 41.9995C7.12081 43.6968 6.92095 43.0621 8.22409 44.551C8.31821 44.4961 8.65895 44.9102 8.79861 44.9178C8.50583 44.3849 6.92115 43.0623 6.05426 42.1169C6.14877 42.1999 6.33901 42.3667 6.38837 42.3874C5.76028 41.7202 5.47493 41.4702 4.99312 41.0469L5.04148 41.1124C4.17499 40.3973 4.60643 40.5696 4.17218 40.0734C3.98014 39.9046 3.35245 39.2387 3.40201 39.3968L2.62723 38.4868L2.58449 38.6102C2.10268 38.1414 2.05352 37.983 1.5701 37.6043L1.47539 37.6585L2.63405 38.8604C2.00917 38.2886 2.39526 38.7651 1.7198 38.1257C2.12917 38.451 2.00917 38.3113 1.78643 38.0727C1.67505 37.9532 1.538 37.8093 1.42863 37.6864C1.37405 37.6247 1.32609 37.5685 1.29198 37.5235C1.27722 37.5041 1.26342 37.484 1.25064 37.4633C1.23733 37.4468 1.2267 37.4284 1.21913 37.4087C1.10495 37.3067 0.990571 37.2047 0.883213 37.0979L0.659266 36.8631L0.546289 36.7441C0.508563 36.7043 0.484482 36.6585 0.452776 36.6155L0.535653 36.726L0.637794 36.827L0.549499 36.7063L0.486691 36.59C0.447159 36.5158 0.403012 36.4527 0.380537 36.3828L0.299868 36.1917C0.276991 36.1294 0.262543 36.0658 0.242676 36.0027C0.197325 35.877 0.185285 35.7391 0.167024 35.575C0.169633 35.4927 0.174449 35.4032 0.183279 35.304C0.197326 35.2058 0.227627 35.1004 0.255319 34.9817L0.170034 35.2789C0.154181 35.3781 0.140536 35.4756 0.128495 35.572C0.127091 35.6682 0.131306 35.7634 0.135319 35.8582C0.143346 35.9525 0.16582 36.0435 0.18087 36.1363C0.22562 36.3176 0.28582 36.4987 0.38776 36.6659C0.428095 36.7543 0.497527 36.8334 0.56435 36.9165L0.773447 37.1714L1.16194 37.5446C1.24943 37.6243 1.33452 37.6984 1.43204 37.7812L1.20629 37.5892C1.17739 37.5659 1.08609 37.4804 1.01144 37.4115L0.761607 37.1792C0.586422 36.9796 0.376924 36.7708 0.249097 36.527C0.128495 36.2784 0.036991 36.0102 0.0129107 35.7507C-0.0480927 35.2275 0.122677 34.7988 0.199934 34.6156C0.308496 34.3442 0.533647 34.14 0.715052 33.9337C0.893046 33.7414 1.11759 33.4962 1.19826 33.4362C1.42221 33.2364 1.64716 33.0456 1.89037 32.8127C1.44689 33.2826 1.58375 33.2593 1.59519 33.3396C1.60081 33.3799 1.57512 33.446 1.42984 33.6127L1.01425 34.0703L0.646222 34.465C0.586423 34.5431 0.538664 34.6327 0.479065 34.7237C0.437125 34.8233 0.385552 34.9271 0.349632 35.0431C0.345418 34.9694 0.466423 34.6739 0.553714 34.5825C0.377928 34.7341 0.170436 35.1811 0.22261 35.7045C0.239667 35.965 0.340403 36.227 0.464015 36.4605C0.597059 36.6886 0.80134 36.8744 0.961474 37.0457L1.32669 37.3665C1.27733 37.2685 1.39552 37.3533 1.41218 37.3434C1.42241 37.3404 1.43425 37.3404 1.39111 37.2862C1.34535 37.2294 1.25485 37.1284 1.09452 36.9569L0.875587 36.684C0.940604 36.7782 0.915119 36.7748 0.824818 36.6961C0.802544 36.6762 0.774651 36.6525 0.746156 36.623L0.66368 36.5154C0.634784 36.4746 0.598262 36.432 0.569165 36.3808C0.543479 36.3272 0.515587 36.27 0.48649 36.2099C0.383948 35.9646 0.305486 35.6321 0.364282 35.2857C0.421674 34.9397 0.574182 34.601 0.849501 34.3562L0.839868 34.4851C0.833245 34.5468 0.838464 34.6092 0.840872 34.6102C0.834049 34.607 0.919735 34.5187 1.04676 34.3861L1.50428 33.9092L2.00054 33.4305L1.91445 33.5269C2.35813 33.2368 2.94368 32.4762 3.66188 31.8515C4.10616 31.327 6.0055 29.5078 5.07961 30.1825C5.75787 29.6554 6.19493 29.0355 6.83887 28.3647L5.96837 29.1335C6.85653 28.0846 6.63078 28.4167 7.27513 27.5111C7.3859 27.4651 7.58577 27.3191 7.46175 27.5095C8.77413 26.2188 10.6729 24.3998 11.3429 23.5434C12.2688 22.6344 12.5519 22.6286 13.7895 21.2919C14.0449 21.0052 13.4674 21.3933 14.3565 20.5777C14.423 20.5293 13.6203 21.482 14.5634 20.5269C15.1514 19.7638 16.2069 18.9948 17.011 18.0408C17.5095 17.6107 18.3057 16.7957 18.209 17.034C17.4547 17.7505 16.425 18.8022 16.3002 18.9944C16.3588 18.8504 15.7333 19.4741 16.244 18.901C15.0741 19.9548 15.5642 19.664 14.5263 20.6208C14.486 20.7178 15.1201 20.1887 15.3091 19.95C15.4115 20.0425 13.3829 21.9563 14.3899 21.1895C15.4679 20.1361 15.5814 19.6183 16.6113 18.8004C16.2992 19.2283 15.6677 19.7552 15.2985 20.3257L16.0996 19.6088L16.5818 18.9898L16.5633 19.0368C17.9981 17.7902 17.7069 17.7013 18.8616 16.4578C18.0964 17.0828 18.8531 16.1293 18.2871 16.6089C19.0795 15.7973 19.6835 15.2235 19.7869 15.3152C18.3609 16.8893 19.8049 15.5028 18.5104 16.9816C18.7739 16.7895 18.3222 17.4527 19.1626 16.6399C20.0275 15.6427 18.8016 16.8365 19.7016 15.8791C19.7654 15.8331 19.8314 15.7851 19.8131 15.8315C20.191 15.3554 20.3317 15.3532 20.7944 14.7823L20.6911 14.9239C21.3902 14.3478 21.3236 14.1623 21.939 13.6798C21.6463 13.8265 22.2491 13.2535 22.5453 12.8697C21.9597 13.3966 21.5533 13.5932 20.4577 14.6922C20.3822 14.8813 20.4944 14.8331 20.0698 15.3098L20.7788 14.5922C20.6337 14.7548 20.5309 14.8865 20.4007 15.0385L19.6833 15.6915C20.5141 14.7853 20.0529 15.1211 20.3638 14.6942C21.1867 13.9271 21.0063 14.0251 21.5267 13.5454C21.5604 13.679 23.2089 12.1611 24.1817 11.3031L23.7521 11.7228C23.138 12.438 24.2814 11.3367 24.3292 11.3351L24.7733 10.8106C24.6876 10.9072 24.5806 11.0524 24.8 10.8584C25.4427 10.1895 25.3209 10.1444 25.9623 9.47629C26.058 9.4733 25.5728 10.0948 26.0058 9.71335C26.1872 9.61374 26.7437 9.27488 27.5758 8.36728C27.6202 8.28839 27.8365 8.05372 28.0912 7.78558C28.0572 7.82423 28.0131 7.87164 28.0002 7.89116L28.6308 7.36564C28.2158 7.93479 27.5941 8.32066 27.1767 8.8928L27.2098 9.00933C26.8235 9.39341 26.3311 9.94682 26.1288 10.2251C26.7308 9.65279 26.8352 9.50995 27.4787 8.8402C27.6184 8.79578 27.1895 9.29162 27.1277 9.36313L27.1831 9.22289C26.3349 9.94125 26.0802 10.461 25.0879 11.4184C24.9372 11.562 25.0217 11.467 25.0404 11.4202C24.3212 12.2788 23.4443 12.9511 22.7704 13.8107L22.9817 13.5223L20.5861 16.2531L20.6072 16.2903C20.7384 16.1949 20.3529 16.5756 20.1348 16.7684L20.1354 16.767L18.8182 18.2603C19.0004 18.1226 19.1745 17.9746 19.3396 17.8171C19.4658 17.6234 20.435 16.7172 20.2279 16.7678C20.7097 16.3829 21.3428 15.6204 21.6916 15.3327C21.0597 15.8604 22.0231 14.8572 22.0819 14.7134C22.3269 14.5681 22.9404 13.8538 22.9305 13.9952C23.0626 13.8984 22.6008 14.2352 22.3932 14.5203C21.8455 15.1867 23.5633 13.4667 22.8627 14.2787C23.7818 13.2741 25.0743 12.031 26.009 10.9817L25.4243 11.5082C25.8768 11.0783 26.9096 10.0235 27.02 9.9775C26.6987 10.3118 26.3134 10.6927 25.9059 11.1236C25.9602 11.2182 26.9168 10.1191 27.0097 10.1185L28.1082 8.78223L27.5688 9.30955C27.8606 8.92965 29.0347 7.87303 29.8747 7.05985C29.5013 7.63398 28.6257 8.30492 27.7942 9.21233C27.199 9.88049 28.2844 8.92188 27.7089 9.54183C27.8885 9.41094 28.2772 9.01949 28.4445 8.80235L28.6996 8.58581C28.2575 9.20974 27.0366 10.3805 26.3178 11.2531C26.378 11.1736 26.4286 11.1024 26.4398 11.0698C25.7887 11.6445 25.1654 12.2662 24.5905 12.886C24.937 12.6001 25.0426 12.4559 25.2132 12.265C25.2587 12.2654 24.7027 12.8374 24.5138 13.0752C25.099 12.5483 24.6728 13.0264 25.041 12.6914C24.6998 13.074 24.399 13.3597 23.9465 13.7896C23.6818 13.9826 24.088 13.5529 23.9951 13.5537C23.5669 14.0338 23.248 14.1313 22.634 14.8466C23.541 13.9846 22.5003 15.1783 22.2256 15.5126L22.3775 15.3682C22.1501 15.701 21.9133 15.9405 21.6695 16.0845C22.0107 15.7018 22.3775 15.3682 22.2192 15.4162C21.9816 15.6568 21.7448 15.8965 21.4895 16.1827L21.697 15.8981L20.5159 17.0933C20.3756 17.329 20.1286 17.7099 20.0349 17.945C19.705 18.1854 19.3432 18.6171 19.0887 18.9034L19.1947 18.7579C18.6272 19.239 17.4914 20.4353 17.4356 20.5759C17.0214 20.911 19.819 17.6675 17.2022 20.3443C16.1929 21.3471 16.71 21.1047 16.181 21.7238C16.181 21.7238 16.1995 21.6776 16.1333 21.7254C15.6814 22.1543 15.6892 22.2501 15.3479 22.6326C15.6336 22.3902 16.0187 22.0099 16.1224 21.8674C16.0468 22.0563 15.1969 22.7762 14.9034 23.1571C15.2545 22.6332 14.0154 23.9719 14.3112 23.5882C13.3753 24.4044 12.5054 25.4066 12.1089 25.9296C11.4017 26.4116 11.0776 26.9826 10.0584 27.8926C10.2105 27.7482 10.464 27.4637 10.6839 27.2691C11.1655 26.6515 9.64403 28.2281 10.429 27.3212C10.2585 27.5125 10.4535 27.371 10.6287 27.1752C10.9466 26.8439 11.2225 26.5087 11.1087 26.5583L10.2577 27.2798L10.5161 26.9896L9.23286 28.0928C9.2144 28.139 9.34443 28.0452 9.41065 27.9966C7.9843 29.3375 6.44456 30.9612 5.21646 32.1577C5.20141 32.3695 4.47399 33.1338 3.64262 33.9823L3.0091 34.6271L2.69546 34.9477L2.57706 35.0708L2.50984 35.1443C2.42214 35.2393 2.33887 35.3303 2.32181 35.4375C2.30014 35.5413 2.32723 35.6387 2.37499 35.7023C2.30515 35.6365 2.24315 35.568 2.18696 35.5303C2.12937 35.4925 2.07178 35.4867 2.03124 35.5533C2.02562 35.4646 2.02281 35.3164 2.11331 35.17C2.15726 35.0969 2.22027 35.0247 2.28749 34.9451C2.32241 34.905 2.35673 34.8674 2.39867 34.8247C2.45826 34.7642 2.52027 34.704 2.58449 34.6443C2.69586 34.597 3.34583 34.0233 2.98703 34.4518C4.33834 33.0655 2.71412 34.55 3.04583 34.0743L2.66897 34.4626L2.33325 34.8176C2.19077 34.9861 2.03566 35.1198 1.96783 35.2929C1.93683 35.3746 1.92369 35.462 1.9293 35.5492C1.9349 35.6363 1.95912 35.7213 2.00034 35.7985C2.07599 35.9491 2.21766 36.0395 2.33084 36.13L2.47853 36.2441L2.71051 36.4443L3.17064 36.8507L3.17144 36.8981L3.94121 37.5745C3.36148 36.9726 3.50315 36.8902 4.22797 37.688L4.12944 37.6012C4.51813 38.0807 5.48055 38.9257 6.15399 39.609L6.68075 40.0028C7.3552 40.6873 7.26369 40.8365 7.41279 41.1284C8.47312 42.1978 9.18951 42.7121 10.0076 43.4072C10.298 43.8004 11.8865 45.4021 10.9743 44.6235C11.9848 45.5343 12.0731 45.0604 13.5699 46.8577L13.0899 46.4822C14.6814 48.041 17.0373 50.1788 17.7121 50.9551C16.946 50.5577 19.5007 53.1002 19.6024 53.5572C19.5651 53.4386 20.1727 54.015 20.2811 54.0791C20.3901 54.2291 20.5865 54.4646 20.8534 54.656C20.2729 54.0082 21.4729 54.9015 20.2219 53.8032C20.9413 54.2733 21.8058 54.9409 23.1063 56.2441L23.0118 56.2989L22.0006 55.2499C22.05 55.4083 21.522 54.876 21.2782 54.6847C23.1595 56.6356 20.8514 54.6086 22.8272 56.5507C23.0656 56.691 22.9225 56.5886 23.4527 57.077C23.2099 56.841 23.1152 56.8492 23.5014 57.2346L23.9331 57.5446C24.495 58.35 22.7154 56.4969 23.2137 57.1655C22.3958 56.4702 21.0495 55.1961 21.199 55.5342C22.404 56.7993 22.4931 56.4639 23.7461 57.7938L23.8434 57.9713C24.327 58.3964 24.4665 58.4042 24.7558 58.6126C24.7552 58.658 24.8538 58.7903 25.1401 59.0875C26.0062 59.7562 26.536 60.2449 27.3511 60.8457C25.3821 59.0474 25.8083 59.169 23.787 57.3018C24.1239 57.5745 25.52 58.9156 25.7078 58.8966L25.6145 58.953C26.2877 59.5441 26.9604 60.1353 27.7326 60.9505L27.204 60.5097C28.3119 61.5061 28.8459 62.3649 29.8035 63.0685C29.5159 62.7699 29.2747 62.5348 29.0817 62.3659C29.6586 62.8723 30.333 63.557 30.9112 64.1558L32.2568 65.2465C32.2091 65.2728 32.9813 66.044 32.5484 65.7318C33.3716 66.6621 33.8979 66.9631 34.4249 67.4494C35.2466 68.4231 33.609 66.7097 33.4173 66.7247C34.6241 67.9914 35.9714 69.267 36.7394 69.8955C36.5012 69.6292 36.3912 69.4941 36.4221 69.4889C36.4362 69.5497 36.9427 70.0403 37.2206 70.3178L37.461 70.4597L37.471 70.4712L37.4734 70.4742L37.4478 70.4997H37.4474L37.4459 70.5007L37.4417 70.5047C37.4379 70.5089 37.4344 70.5134 37.4313 70.5182C37.4309 70.5192 37.4331 70.5143 37.4315 70.517C37.4273 70.5254 37.4331 70.5121 37.4301 70.5196C37.4271 70.5302 37.4221 70.5401 37.4152 70.5487C37.413 70.5507 37.4034 70.5639 37.3998 70.5629C37.3968 70.5629 37.3938 70.5635 37.391 70.5647L37.3839 70.5674C37.3781 70.5645 37.3853 70.5788 37.3667 70.5617C37.3757 70.5712 37.3781 70.5728 37.3779 70.5714L37.3809 70.5718L37.3855 70.5738C37.3892 70.574 37.3872 70.5834 37.3926 70.5802C37.4028 70.573 37.4024 70.5866 37.4124 70.5754C37.4237 70.5798 37.4363 70.5505 37.4405 70.5505C37.4407 70.5445 37.4407 70.5411 37.4417 70.5407C37.4393 70.5407 37.4498 70.5411 37.4375 70.5425C37.4163 70.546 37.3967 70.5561 37.3817 70.5714L37.3709 70.584C37.3697 70.5862 37.3587 70.5995 37.3721 70.5874L37.4716 70.5065L37.522 70.4672L37.5224 70.467L37.4494 70.5326L37.4492 70.5324L37.449 70.532L37.4488 70.5316L37.4486 70.5306V70.5296C37.4494 70.5288 37.4526 70.5302 37.4588 70.5326C37.459 70.5306 37.474 70.5368 37.4857 70.5362C37.4937 70.5433 37.4851 70.5431 37.4933 70.5527C37.4963 70.5601 37.4875 70.5607 37.4917 70.5722L37.4921 70.5742L37.4923 70.5752L37.4925 70.5756C37.523 70.5479 37.4239 70.6372 37.5613 70.5139L37.5605 70.5145L37.5581 70.5166L37.5381 70.5342L37.4983 70.5692L37.4177 70.6392L37.4086 70.6469L37.4112 70.6421L37.4175 70.6332C37.4237 70.6254 37.4315 70.6189 37.4403 70.6141C37.4491 70.6093 37.4588 70.6063 37.4688 70.6053C37.4563 70.6114 37.4425 70.6144 37.4286 70.614C37.4147 70.6136 37.4011 70.6099 37.389 70.6031C37.3831 70.6011 37.3751 70.6015 37.3733 70.5921C37.3721 70.5908 37.3707 70.5897 37.369 70.589C37.3674 70.5882 37.3657 70.5878 37.3639 70.5878C37.3653 70.5919 37.353 70.5796 37.341 70.5674L37.3075 70.534L37.0538 70.283C36.8945 70.1276 36.7566 69.9975 36.6485 69.9085C36.8687 70.114 37.0846 70.324 37.2961 70.5384L37.3498 70.5933C37.3575 70.5991 37.3575 70.5965 37.3607 70.5993C37.3657 70.6019 37.3661 70.6111 37.3699 70.6155C37.3755 70.6162 37.3793 70.6194 37.3823 70.6254C37.3837 70.635 37.3912 70.6318 37.3952 70.6356C37.4002 70.6372 37.403 70.6483 37.409 70.6489C37.4205 70.6465 37.4313 70.668 37.4441 70.6639C37.4516 70.666 37.4586 70.6696 37.4648 70.6742C37.4712 70.6722 37.478 70.6722 37.4845 70.674C37.5162 70.6776 37.4736 70.6852 37.4736 70.7127L37.4724 70.7228C37.4718 70.727 37.4865 70.7141 37.4929 70.7105L37.5429 70.6758L37.5932 70.641L37.6187 70.6232L37.6314 70.6143L37.6378 70.6099L37.6394 70.6087L37.58 70.6621L37.5802 70.6619L37.5808 70.6611C37.5866 70.654 37.5939 70.6482 37.6021 70.6439C37.6129 70.6402 37.6223 70.6348 37.6251 70.6254C37.6629 70.6019 37.6715 70.5525 37.6797 70.4995C37.6866 70.4756 37.6705 70.4346 37.6721 70.4234C37.6725 70.4276 37.6753 70.4312 37.6799 70.4332C37.6827 70.4344 37.6857 70.4351 37.6888 70.4352H37.6942C37.6966 70.4354 37.6862 70.4244 37.6825 70.4196L37.6199 70.3433L37.5878 70.3045L37.5718 70.2846L37.5676 70.2798L37.6165 70.3338L37.6153 70.3326L37.6131 70.3302L37.6039 70.3212C37.3807 70.1015 37.1544 69.8849 36.9252 69.6714C36.9238 69.6238 37.3091 69.9164 36.9228 69.5317C36.0084 68.6596 36.5885 69.3987 36.2544 69.1744C36.6146 69.5021 36.8676 69.7527 37.0729 69.979C37.1754 70.0921 37.2661 70.1991 37.3526 70.3067L37.4797 70.4686L37.4799 70.469C37.5363 70.5312 37.403 70.3848 37.4171 70.3999L37.4175 70.4007L37.4183 70.4021L37.4201 70.4049L37.4235 70.4103L37.4303 70.4214L37.4437 70.4433L37.4706 70.488C37.4865 70.5158 37.5116 70.5523 37.5202 70.5742C37.5298 70.5832 37.4708 70.5354 37.4211 70.4959L37.3829 70.4659L37.3653 70.4519L37.3611 70.4485L37.3601 70.4477L37.3595 70.4473L37.3593 70.4471L37.3591 70.4469L37.4273 70.5218L37.4251 70.5204L37.4169 70.5153L37.3819 70.4929C37.3745 70.4449 36.9423 70.0134 36.8343 69.867L36.6423 69.8361C36.7827 69.7987 36.1573 69.0433 35.5789 68.5353C36.0651 69.1461 35.9197 68.9951 35.968 69.2445C35.1055 68.5791 35.1977 68.2924 34.237 67.5406C34.33 67.5763 35.1013 68.2996 34.4752 67.6345C33.9429 67.0982 33.9449 67.238 33.563 66.9027C34.0424 67.2312 33.9934 67.0733 34.5204 67.4219C35.4828 68.3586 34.9039 67.8046 35.8677 68.6971L35.1421 67.8522C35.9614 68.6417 35.8141 68.3508 35.9088 68.3885C34.6055 66.9448 34.7572 67.4687 33.8895 66.5687C33.4109 66.1946 34.7098 67.4042 33.9874 66.793C33.1687 65.9587 33.7498 66.6531 32.7866 65.7607L32.9764 65.8816C32.7358 65.5551 32.4001 65.3296 32.0632 65.0102C31.6785 64.673 32.2157 65.6732 30.7213 64.1997C30.8148 64.2516 30.8548 64.2652 30.8634 64.2566L32.9393 65.0806C31.2729 63.4283 29.6268 61.756 28.0014 60.064C27.7117 59.5347 29.3491 61.2027 29.2972 61.042L30.0694 61.8581C29.973 61.8649 28.3835 60.216 29.0118 61.0212C30.4564 62.3817 31.0358 63.0747 32.4776 64.2947C32.1848 63.7616 30.6972 62.5703 29.9231 61.6143C30.2799 61.9842 30.6011 62.2767 30.9176 62.5562L28.3524 59.9078L28.1142 59.7299C28.7261 60.3646 29.1483 60.8045 29.1996 60.8641C28.3811 60.0302 27.6142 59.403 27.4697 59.4369L27.614 59.5863L27.2863 59.3166C27.0991 59.1175 26.9114 58.919 26.723 58.7211ZM34.1345 5.1273C34.0926 5.18587 34.0629 5.23528 34.046 5.27671C34.0635 5.23348 34.0211 5.25898 34.1345 5.1273ZM33.8313 68.6957L35.4647 70.3668L36.2716 71.1936L36.4717 71.3978C36.4994 71.429 36.5506 71.4721 36.5981 71.5113C36.6473 71.5488 36.6906 71.5948 36.7462 71.6231C36.9573 71.7579 37.2057 71.8181 37.4516 71.8243C37.2302 71.8032 37.0165 71.747 36.8445 71.6308C36.7534 71.5818 36.68 71.5127 36.6104 71.444C36.5313 71.3731 36.5006 71.3205 36.4468 71.2603L35.9209 70.6212C35.612 70.2407 35.3967 69.9612 35.3359 69.8461C35.2749 69.7312 35.3684 69.7804 35.677 70.0575C35.8314 70.1959 36.0395 70.3913 36.3088 70.6515C36.4428 70.7822 36.5927 70.9286 36.7599 71.0912C36.8018 71.136 36.8433 71.1661 36.8855 71.2001L36.9493 71.2517L37.0243 71.29L37.1006 71.3302L37.1855 71.3547C37.2144 71.3625 37.2427 71.3735 37.2726 71.3794L37.3649 71.3878C37.3659 71.4003 37.6237 71.3641 37.6205 71.3551C37.4945 71.3693 37.3404 71.3766 37.1855 71.3177C37.1048 71.2995 37.033 71.2486 36.9571 71.2053L36.8532 71.1187C36.8169 71.0884 36.7765 71.0432 36.7376 71.0055C36.4036 70.6705 36.0656 70.3396 35.7234 70.0128C35.2144 69.6145 34.7022 69.22 34.1871 68.8295L33.4316 68.262C33.2341 68.1165 33.1089 68.0281 33.1087 68.0379C33.2538 68.2801 33.5913 68.508 33.9298 68.874L33.8313 68.6957ZM33.3405 67.6217C32.7334 66.9799 32.8368 67.1605 32.7045 67.0988L33.3766 67.7394C33.3021 67.648 33.2732 67.5946 33.3405 67.6217ZM32.7069 67.1709C32.7766 67.2416 32.835 67.303 32.8617 67.339L32.7069 67.1709ZM32.24 63.9233L32.3064 63.9851L31.8633 63.5291C31.9177 63.5942 32.0279 63.7122 32.24 63.9233ZM33.4259 65.272L33.6393 65.3559L33.2237 64.9284C33.2419 65.0047 33.2662 65.0792 33.4259 65.272ZM37.3035 69.5421C37.3872 69.5869 37.5043 69.6738 37.6348 69.7786L37.8387 69.9459L37.891 69.9897L37.9173 70.0117L37.9304 70.0228L37.9308 70.0232C37.9219 70.0132 37.9514 70.0455 37.9109 70.0013L37.9117 70.0021L37.9131 70.0037L37.9161 70.0069L37.9221 70.0128L38.0173 70.1105C38.0568 70.1467 38.0628 70.166 38.0767 70.1866C38.0897 70.2081 38.1078 70.2246 38.1218 70.2487C38.1417 70.3041 38.1782 70.3529 38.1892 70.4017C38.2023 70.4497 38.2207 70.4915 38.2338 70.5242C38.2422 70.5569 38.254 70.58 38.2691 70.5892C38.2815 70.6232 38.2982 70.5876 38.3118 70.5091L38.3084 70.3641C38.3016 70.3091 38.2813 70.2501 38.2677 70.1871C38.2538 70.1559 38.2368 70.127 38.2219 70.0961C38.2055 70.0656 38.1967 70.0342 38.166 70.0019L38.0873 69.9045L38.0674 69.88C38.0624 69.8749 38.0573 69.8698 38.0524 69.8646L38.0074 69.8192L37.6362 69.4427C37.6143 69.4467 37.5509 69.4078 37.454 69.3347C37.697 69.5981 37.8447 69.7887 37.6868 69.7409C37.1528 68.9732 37.0159 69.2441 36.3401 68.5122C36.0523 68.3512 37.0641 69.3546 37.3035 69.5421ZM16.8188 19.8078C16.8465 19.7956 16.9358 19.747 17.0574 19.6755L16.6036 20.2136C15.6964 21.0758 14.8568 21.6545 14.1679 22.5575C13.7662 22.9013 13.5073 23.042 13.2677 23.184C13.4543 23.0057 13.6303 22.8404 13.7804 22.7061C15.8596 20.3212 15.1191 21.7152 16.8188 19.8078ZM6.45299 29.7863C6.53908 29.6899 6.55733 29.6429 6.55733 29.6429C4.73727 31.775 3.15118 33.4438 2.07539 34.4992C2.3477 34.358 3.35746 33.4554 3.83987 33.0298L3.51017 33.5042L3.19994 33.6966L2.56623 34.4592C2.81205 34.314 3.3677 33.7418 3.78429 33.4042C3.80295 33.3576 4.9283 32.069 5.22128 31.6876L4.20208 32.5978C4.48422 32.3587 5.75125 31.067 6.24148 30.5427C6.21439 30.4959 5.27968 31.3103 5.24978 31.4999C5.09044 31.5489 6.10142 30.5441 5.40268 31.1206C6.10202 30.3096 7.3572 29.161 7.94416 28.6325L8.13139 28.6301C8.78135 28.0563 8.4348 28.1075 9.21781 27.4366C8.33908 28.3448 9.47085 27.3868 8.7645 28.1018C9.02717 27.9103 8.86684 28.1942 9.5748 27.4778C10.0474 26.7654 10.405 26.8061 10.8595 26.1403C11.2735 25.8052 10.5288 26.615 11.2847 25.8971C12.0685 24.9913 11.9734 24.9941 11.9369 24.8532C11.1187 25.6158 11.1617 25.8531 10.4913 26.4754L11.6289 25.0431C11.3696 25.2576 11.1912 25.4301 11.0497 25.5827C11.3002 25.3166 11.4978 25.0755 11.6551 24.8574L11.9078 24.5167C11.1757 25.2419 10.5242 25.8845 10.3715 25.9608L10.429 25.8178C10.1305 26.0355 9.73955 26.4854 9.57661 26.7099C8.92664 27.3647 8.33286 28.0737 8.13379 28.1601L8.34289 27.8741C7.54945 28.6858 7.46517 28.7803 6.45299 29.7863ZM21.5855 56.5964C21.2562 55.9549 20.8582 55.282 18.5541 53.0496L18.7442 53.2165C17.6965 51.9788 16.3759 51.1266 15.0906 49.6313C15.8277 50.2445 15.7857 50.2136 16.6701 50.8204L15.8987 50.1435C16.1863 50.2578 15.4169 49.5825 14.8877 49.0492L15.4608 49.4146C15.7514 49.7614 16.5703 50.5957 16.5693 50.5483C16.3763 50.3792 17.5351 51.7643 18.2586 52.4233C18.2566 52.2832 16.7638 50.8573 17.5313 51.3937C16.9073 50.8686 16.905 50.7288 16.2782 50.1549C16.9036 50.6814 16.5159 50.2027 16.997 50.5796L15.9852 49.6222C15.9826 49.5736 17.4755 50.9995 16.7513 50.111C16.3191 49.7542 15.3077 48.6594 15.214 48.715L15.2126 48.6679C14.4884 47.9167 14.781 48.4496 13.9143 47.5045C13.8659 47.5312 14.0134 47.7293 14.3469 48.045C14.6389 48.3018 14.7326 48.2926 15.3101 48.8452C15.506 49.1558 14.6333 48.159 14.9281 48.6482C15.0743 48.8913 16.4678 50.0923 15.9418 49.7909L15.2188 49.0411C15.1249 49.0966 14.5939 48.561 14.5484 48.6359C14.0688 48.2145 13.7266 47.7073 13.1997 47.3135C12.9597 47.1713 13.2043 47.593 12.4797 46.7957C11.9939 46.0933 10.2135 44.3688 9.53908 43.7305L8.9148 43.2058C8.91781 43.3002 10.0225 44.2929 9.59246 43.9847L8.6756 43.1101L8.77373 43.1504C8.48216 42.8482 8.14664 42.5766 7.85827 42.3233C8.19219 42.5476 8.81848 43.2123 8.76771 43.0071C8.36115 42.5729 8.32584 42.4802 7.92249 42.1097C8.01279 42.1884 8.09346 42.2531 8.09366 42.2316C7.27312 41.3499 7.18142 41.4991 6.94182 41.3119C5.98121 40.56 7.71339 42.2647 7.52316 42.2356L4.97245 39.7887C5.21205 39.9761 5.45285 40.1654 5.40409 40.0532C4.82496 39.4068 5.45065 39.9793 4.58335 39.1257C4.5382 39.2927 3.4295 38.1121 2.75766 37.5679C2.51626 37.2414 2.46649 37.1744 3.09118 37.792C3.09218 37.6555 2.21826 36.8408 1.94154 36.5537C1.90522 36.5244 1.86962 36.4943 1.83479 36.4633C1.75311 36.3907 1.64515 36.3077 1.55305 36.2089C1.50689 36.1595 1.45773 36.1116 1.42803 36.0545C1.39412 36.0001 1.35719 35.9497 1.34094 35.8975C1.37184 36.0624 1.38509 36.1118 1.31244 36.0403C1.29679 36.0214 1.27111 35.9967 1.25184 35.9592C1.23378 35.9214 1.21311 35.8742 1.18963 35.8174C1.16535 35.7608 1.16114 35.6899 1.14509 35.611C1.13828 35.5213 1.14178 35.4311 1.15552 35.3421L1.1483 35.2943C1.0881 35.5015 1.07886 35.7501 1.16335 35.9859C1.24241 36.2268 1.43224 36.4138 1.61164 36.6123L2.15826 37.186L2.66134 37.7014C2.98322 38.0241 3.27098 38.2954 3.48208 38.4576L3.29064 38.3358C4.25606 39.413 5.6461 40.4272 5.98804 41.0264C5.89252 41.0346 6.18208 41.2427 6.08937 41.2991L6.90269 41.9906L6.71185 41.8685L8.01279 43.1265L7.96483 43.1066L9.6035 44.3992C9.63761 44.3682 9.60791 44.319 9.83547 44.4968C10.0149 44.6469 10.1856 44.8069 10.3468 44.9762C10.348 44.977 10.348 44.9769 10.3482 44.9767L10.3478 44.9771C10.6532 45.2993 10.8163 45.5543 11.1852 45.9585L9.98316 44.7811C9.83045 44.7397 9.8744 44.8975 10.4208 45.5168C10.1794 45.2811 10.0361 45.2248 10.3259 45.5252C10.3729 45.5431 11.1436 46.2668 10.9022 45.9391C12.0567 47.0452 13.7475 49.0126 15.575 50.6176C14.2745 49.452 16.4923 51.6758 15.096 50.3347C15.9661 51.3746 16.0083 51.067 16.9719 52.0509C17.0232 52.1653 16.4439 51.5185 16.1565 51.3579C17.7458 53.0062 19.0414 53.9375 20.5865 55.5248L20.5845 55.6603C20.8915 55.9469 21.2317 56.2655 21.5855 56.5964ZM24.7813 59.5979L25.7263 60.4887L25.638 60.3969L26.6028 61.2439C26.0712 60.6627 25.7792 60.222 26.5964 60.9629C26.5019 60.9258 26.6955 61.1876 26.4069 60.9342C26.8893 61.4954 27.9984 62.6763 27.8032 62.2751C26.6979 61.3738 27.7017 61.9101 26.8374 61.1975C27.33 61.5513 27.7197 61.9994 28.151 62.3671C27.6768 62.0093 28.1192 62.5918 28.7188 63.2411C29.0084 63.4952 29.731 64.2443 30.2118 64.667C30.1141 64.4431 30.5453 64.7987 29.8227 64.0492C30.2333 64.409 30.6201 64.7948 30.9806 65.2041C30.7833 65.03 30.4496 64.7144 30.449 64.7598C30.6936 65.1192 31.0512 65.4692 31.2222 65.6886L31.6998 66.1424C31.6597 66.0912 31.6273 66.0447 31.6081 66.0075L32.1836 66.4671C31.462 65.8103 31.8936 66.1204 31.9398 66.0922C31.8465 66.1479 32.3754 66.5438 32.6144 66.7763L32.1792 66.1874C32.4675 66.3948 32.9997 67.1153 32.9481 66.9087C31.8886 65.7943 31.4556 65.3915 30.4454 64.4353L30.7843 64.8939C29.6277 63.8319 30.2032 64.1078 28.951 62.8709C28.3757 62.4109 27.0687 61.0099 26.9307 61.0957C27.1215 61.2173 26.2528 60.2246 25.774 59.8501C25.1983 59.4823 23.7537 58.0759 24.1402 58.5524C24.5255 58.9375 25.1022 59.3979 25.346 59.7728L24.5748 59.0496L25.0109 59.5935C24.7767 59.3214 24.7466 59.4001 24.7813 59.5979ZM36.1572 66.3553L36.1298 66.3252L36.1615 66.3575L36.1572 66.3553Z"
    fill="#F16A50" />
</svg>